<svg width="50" height="50" viewBox="0 0 50 50" fill="none" xmlns="http://www.w3.org/2000/svg">
<g clip-path="url(#clip0_224_1539)">
<path d="M46.875 7.29175H3.125C2.2962 7.29175 1.50134 7.62099 0.915291 8.20704C0.32924 8.79309 0 9.58795 0 10.4167L0 39.5834C0 40.4122 0.32924 41.2071 0.915291 41.7931C1.50134 42.3792 2.2962 42.7084 3.125 42.7084H46.875C47.7038 42.7084 48.4987 42.3792 49.0847 41.7931C49.6708 41.2071 50 40.4122 50 39.5834V10.4167C50 9.58795 49.6708 8.79309 49.0847 8.20704C48.4987 7.62099 47.7038 7.29175 46.875 7.29175ZM46.2083 9.37508L25 25.7709L3.79167 9.37508H46.2083ZM2.08333 39.1563V10.6876L18.1354 23.0938L2.08333 39.1563ZM3.55208 40.6251L19.7917 24.3855L24.3542 27.9167C24.5363 28.057 24.7597 28.133 24.9896 28.133C25.2194 28.133 25.4429 28.057 25.625 27.9167L30.2083 24.3855L46.4479 40.6251H3.55208ZM47.9167 39.1563L31.8646 23.0938L47.9167 10.6876V39.1563Z" fill="black"/>
</g>
<defs>
<clipPath id="clip0_224_1539">
<rect width="50" height="50" rx="10" fill="white"/>
</clipPath>
</defs>
</svg>
