<svg width="55" height="55" viewBox="0 0 55 55" fill="none" xmlns="http://www.w3.org/2000/svg">
<path d="M27.2575 33.3687C29.6147 33.3687 31.5256 31.4578 31.5256 29.1006C31.5256 26.7434 29.6147 24.8325 27.2575 24.8325C24.9003 24.8325 22.9894 26.7434 22.9894 29.1006C22.9894 31.4578 24.9003 33.3687 27.2575 33.3687Z" fill="black"/>
<path d="M32.5926 18.6245H21.9224C20.3703 18.6245 19.0123 19.1095 18.1393 19.9825C17.2663 20.8556 16.7813 22.2136 16.7813 23.7656V34.4358C16.7813 35.9878 17.2663 37.3458 18.2363 38.3159C19.2063 39.1889 20.4673 39.6739 22.0194 39.6739H32.5926C34.1446 39.6739 35.5026 39.1889 36.3756 38.3159C37.3457 37.4429 37.8307 36.0848 37.8307 34.5328V23.8626C37.8307 22.3106 37.3457 21.0496 36.4726 20.0795C35.5026 19.1095 34.2416 18.6245 32.5926 18.6245ZM27.2575 35.6968C23.5714 35.6968 20.6614 32.6898 20.6614 29.1007C20.6614 25.4146 23.6684 22.5046 27.2575 22.5046C30.8465 22.5046 33.9506 25.4146 33.9506 29.1007C33.9506 32.7868 30.9435 35.6968 27.2575 35.6968ZM34.1446 23.7656C33.2716 23.7656 32.5926 23.0866 32.5926 22.2136C32.5926 21.3406 33.2716 20.6615 34.1446 20.6615C35.0176 20.6615 35.6966 21.3406 35.6966 22.2136C35.6966 23.0866 35.0176 23.7656 34.1446 23.7656Z" fill="black"/>
<path d="M27.4515 5.04419C14.2592 5.04419 3.58905 15.7144 3.58905 28.9066C3.58905 42.0989 14.2592 52.7691 27.4515 52.7691C40.6437 52.7691 51.3139 42.0989 51.3139 28.9066C51.4109 15.7144 40.6437 5.04419 27.4515 5.04419ZM40.1587 34.5327C40.1587 36.7638 39.3827 38.7038 38.0247 40.0618C36.6667 41.4198 34.7266 42.0989 32.5926 42.0989H22.0194C19.8853 42.0989 17.9453 41.4198 16.5873 40.0618C15.1323 38.7038 14.4532 36.7638 14.4532 34.5327V23.8625C14.4532 19.4005 17.4603 16.2964 22.0194 16.2964H32.6896C34.9206 16.2964 36.7637 17.0724 38.1217 18.4304C39.4797 19.7885 40.1587 21.6315 40.1587 23.8625V34.5327Z" fill="black"/>
</svg>
