<svg width="58" height="58" viewBox="0 0 58 58" fill="none" xmlns="http://www.w3.org/2000/svg">
<path d="M33.099 25.8027C31.1741 25.8027 30.3123 26.8612 29.831 27.6044V26.0601H26.2042C26.2513 27.0824 26.2042 36.9723 26.2042 36.9723H29.831V30.8768C29.831 30.5506 29.8537 30.2243 29.9498 29.9923C30.2126 29.3398 30.8089 28.6647 31.8112 28.6647C33.1234 28.6647 33.6482 29.6661 33.6482 31.1324V36.9714H37.275L37.2759 30.7128C37.2759 27.3624 35.486 25.8027 33.099 25.8027ZM29.8301 27.6424H29.8066C29.8147 27.6297 29.8238 27.618 29.8301 27.6053V27.6424Z" fill="black"/>
<path d="M24.196 26.0601H20.5692V36.9722H24.196V26.0601Z" fill="black"/>
<path d="M29 6.50146C16.5944 6.50146 6.50146 16.5944 6.50146 29C6.50146 41.4057 16.5944 51.4986 29 51.4986C41.4057 51.4986 51.4986 41.4057 51.4986 29C51.4986 16.5944 41.4057 6.50146 29 6.50146ZM40.9308 39.1763C40.9308 40.1315 40.1369 40.9072 39.1555 40.9072H18.6914C17.7127 40.9072 16.9179 40.1324 16.9179 39.1763V18.4739C16.9179 17.5178 17.7127 16.743 18.6914 16.743H39.1555C40.136 16.743 40.9308 17.5187 40.9308 18.4739V39.1763Z" fill="black"/>
<path d="M22.407 20.7993C21.1673 20.7993 20.3553 21.6131 20.3553 22.6843C20.3553 23.731 21.1428 24.5693 22.359 24.5693H22.3826C23.6477 24.5693 24.4352 23.731 24.4352 22.6843C24.4108 21.614 23.6486 20.7993 22.407 20.7993Z" fill="black"/>
</svg>
