<svg width="57" height="57" viewBox="0 0 57 57" fill="none" xmlns="http://www.w3.org/2000/svg">
<path d="M28.5 6.3894C16.3082 6.3894 6.38934 16.3083 6.38934 28.5001C6.38934 40.6918 16.3082 50.6107 28.5 50.6107C40.6918 50.6107 50.6107 40.6918 50.6107 28.5001C50.6107 16.3083 40.6918 6.3894 28.5 6.3894ZM33.9987 29.2785H30.4015C30.4015 35.0257 30.4015 42.1017 30.4015 42.1017H25.0711C25.0711 42.1017 25.0711 35.0942 25.0711 29.2785H22.5373V24.747H25.0711V21.8159C25.0711 19.7167 26.0686 16.4365 30.4505 16.4365L34.3986 16.4517V20.8505C34.3986 20.8505 31.9984 20.8505 31.5317 20.8505C31.065 20.8505 30.4024 21.0838 30.4024 22.0849V24.7479H34.4636L33.9987 29.2785Z" fill="black"/>
</svg>
