<svg width="425" height="284" viewBox="0 0 425 284" fill="none" xmlns="http://www.w3.org/2000/svg">
<path d="M196.631 1.71143C196.631 1.71143 73.32 8.51135 26.9722 69.0077C-19.3757 129.504 -9.11929 200.197 90.7466 255.939C190.613 311.682 304.32 272.254 363.881 240.3C423.442 208.347 441.688 113.433 405.991 70.3649C370.294 27.2964 309.131 -4.40641 196.631 1.71143Z" fill="#5DEBD7"/>
<path opacity="0.8" d="M196.631 1.71143C196.631 1.71143 73.32 8.51135 26.9722 69.0077C-19.3757 129.504 -9.11929 200.197 90.7466 255.939C190.613 311.682 304.32 272.254 363.881 240.3C423.442 208.347 441.688 113.433 405.991 70.3649C370.294 27.2964 309.131 -4.40641 196.631 1.71143Z" fill="white"/>
</svg>
