<svg width="555" height="459" viewBox="0 0 555 459" fill="none" xmlns="http://www.w3.org/2000/svg">
<path d="M172.168 151.681H58.7116V246.529H172.168V151.681Z" fill="white"/>
<path d="M172.531 246.988H58.3416V151.222H172.531V246.988ZM59.0816 246.07H171.791V152.14H59.0816V246.07Z" fill="#EBEBEB"/>
<path d="M69.671 158.86C69.671 159.501 69.5178 160.127 69.2308 160.66C68.9438 161.193 68.5358 161.609 68.0585 161.854C67.5812 162.099 67.0559 162.163 66.5492 162.038C66.0425 161.913 65.577 161.605 65.2117 161.151C64.8464 160.698 64.5976 160.121 64.4968 159.492C64.396 158.864 64.4478 158.212 64.6455 157.62C64.8432 157.028 65.178 156.522 65.6076 156.166C66.0371 155.809 66.5422 155.619 67.0588 155.619C67.7516 155.619 68.416 155.961 68.9059 156.569C69.3958 157.176 69.671 158 69.671 158.86Z" fill="#37474F"/>
<path d="M80.3418 158.86C80.3418 159.501 80.1886 160.127 79.9016 160.66C79.6145 161.193 79.2066 161.609 78.7292 161.854C78.2519 162.099 77.7267 162.163 77.22 162.038C76.7133 161.913 76.2478 161.605 75.8825 161.151C75.5172 160.698 75.2684 160.121 75.1676 159.492C75.0668 158.864 75.1185 158.212 75.3162 157.62C75.514 157.028 75.8488 156.522 76.2783 156.166C76.7079 155.809 77.213 155.619 77.7296 155.619C78.4224 155.619 79.0868 155.961 79.5767 156.569C80.0666 157.176 80.3418 158 80.3418 158.86Z" fill="#EBEBEB"/>
<path d="M91.02 158.86C91.0215 159.503 90.8689 160.133 90.5816 160.669C90.2943 161.205 89.8853 161.623 89.4063 161.87C88.9273 162.117 88.4 162.182 87.8912 162.057C87.3823 161.932 86.9149 161.622 86.5481 161.167C86.1813 160.712 85.9316 160.132 85.8308 159.501C85.73 158.87 85.7825 158.215 85.9816 157.621C86.1808 157.027 86.5177 156.52 86.9497 156.163C87.3816 155.807 87.8891 155.618 88.4078 155.619C89.1006 155.619 89.765 155.961 90.2549 156.569C90.7448 157.176 91.02 158 91.02 158.86Z" fill="#1679AB"/>
<path d="M172.168 165.515H58.7116V166.433H172.168V165.515Z" fill="#EBEBEB"/>
<path d="M514.041 217.851H400.584V312.698H514.041V217.851Z" fill="white"/>
<path d="M514.411 313.157H400.214V217.392H514.411V313.157ZM400.954 312.239H513.671V218.31H400.954V312.239Z" fill="#EBEBEB"/>
<path d="M411.544 225.029C411.544 225.67 411.39 226.297 411.103 226.83C410.816 227.363 410.408 227.778 409.931 228.023C409.454 228.268 408.929 228.333 408.422 228.208C407.915 228.083 407.45 227.774 407.084 227.321C406.719 226.868 406.47 226.29 406.369 225.662C406.269 225.033 406.32 224.381 406.518 223.789C406.716 223.197 407.051 222.691 407.48 222.335C407.91 221.979 408.415 221.789 408.931 221.789C409.624 221.789 410.289 222.13 410.779 222.738C411.268 223.346 411.544 224.17 411.544 225.029Z" fill="#37474F"/>
<path d="M422.214 225.029C422.214 225.669 422.062 226.295 421.776 226.827C421.49 227.359 421.083 227.774 420.607 228.02C420.131 228.267 419.607 228.332 419.101 228.209C418.595 228.087 418.129 227.781 417.763 227.33C417.397 226.88 417.146 226.305 417.043 225.678C416.94 225.051 416.988 224.401 417.183 223.808C417.377 223.216 417.708 222.708 418.135 222.348C418.561 221.989 419.064 221.794 419.58 221.789C419.925 221.785 420.267 221.866 420.586 222.028C420.906 222.189 421.197 222.427 421.441 222.728C421.686 223.029 421.881 223.388 422.013 223.783C422.146 224.178 422.214 224.601 422.214 225.029Z" fill="#EBEBEB"/>
<path d="M432.9 225.029C432.9 225.67 432.747 226.297 432.46 226.83C432.173 227.363 431.765 227.778 431.287 228.023C430.81 228.268 430.285 228.333 429.778 228.208C429.271 228.083 428.806 227.774 428.441 227.321C428.075 226.868 427.827 226.29 427.726 225.662C427.625 225.033 427.677 224.381 427.874 223.789C428.072 223.197 428.407 222.691 428.837 222.335C429.266 221.979 429.771 221.789 430.288 221.789C430.981 221.789 431.645 222.13 432.135 222.738C432.625 223.346 432.9 224.17 432.9 225.029Z" fill="#1679AB"/>
<path d="M514.041 231.685H400.584V232.603H514.041V231.685Z" fill="#EBEBEB"/>
<path d="M138.439 244.766C138.44 246.723 138.13 248.661 137.527 250.469C136.924 252.278 136.039 253.921 134.924 255.304C133.808 256.688 132.484 257.785 131.026 258.534C129.569 259.282 128.007 259.667 126.429 259.665C126.214 259.665 126.015 259.665 125.815 259.665L104.444 259.721C101.309 259.624 98.3289 258.011 96.1393 255.227C93.9498 252.443 92.7242 248.707 92.7242 244.817C92.7242 240.927 93.9498 237.191 96.1393 234.407C98.3289 231.622 101.309 230.01 104.444 229.913H125.615C125.889 229.913 126.155 229.913 126.429 229.913C129.607 229.915 132.655 231.48 134.906 234.263C137.157 237.047 138.427 240.824 138.439 244.766Z" fill="#A6A6A6"/>
<path d="M104.577 245.253C104.598 244.697 104.744 244.16 104.999 243.702C105.102 243.49 105.221 243.288 105.332 243.086L106.072 242.168C106.345 241.921 106.627 241.654 106.908 241.425C108.068 240.507 109.363 239.883 110.719 239.589C113.841 238.818 117.054 238.818 120.176 239.589C121.511 239.893 122.785 240.516 123.928 241.425C124.231 241.673 124.512 241.948 124.801 242.205L125.541 243.068C125.726 243.402 125.897 243.748 126.052 244.105C126.173 244.47 126.274 244.844 126.355 245.225H126.14H120.169C120.117 245.247 120.06 245.248 120.008 245.226C119.956 245.204 119.911 245.162 119.88 245.106C119.713 244.7 119.462 244.355 119.152 244.109C118.843 243.862 118.486 243.721 118.119 243.702C116.32 243.559 114.516 243.559 112.717 243.702C112.349 243.72 111.992 243.859 111.682 244.106C111.372 244.353 111.122 244.698 110.956 245.106C110.904 245.207 110.867 245.28 110.748 245.28H104.584L104.577 245.253Z" fill="white"/>
<path d="M104.569 249.586V246.942C104.569 246.878 104.569 246.813 104.569 246.768H110.689C110.689 246.933 110.689 247.126 110.689 247.318C110.689 248.062 110.689 248.806 110.689 249.549C110.706 249.68 110.697 249.815 110.664 249.941C110.63 250.067 110.574 250.182 110.498 250.276C110.422 250.37 110.33 250.44 110.228 250.481C110.126 250.522 110.018 250.533 109.912 250.513H105.354C105.25 250.534 105.144 250.524 105.044 250.486C104.944 250.447 104.852 250.38 104.776 250.291C104.7 250.201 104.642 250.09 104.606 249.968C104.57 249.846 104.558 249.715 104.569 249.586Z" fill="white"/>
<path d="M120.154 249.623C120.154 248.705 120.154 247.722 120.213 246.777H126.244C126.244 246.823 126.244 246.887 126.244 246.942C126.244 247.86 126.244 248.714 126.244 249.604C126.256 249.728 126.245 249.854 126.212 249.972C126.179 250.09 126.125 250.198 126.054 250.286C125.982 250.374 125.896 250.442 125.801 250.483C125.706 250.523 125.604 250.537 125.504 250.522H120.886C120.788 250.537 120.688 250.524 120.595 250.484C120.501 250.444 120.416 250.378 120.345 250.292C120.275 250.205 120.221 250.1 120.188 249.984C120.155 249.868 120.143 249.745 120.154 249.623Z" fill="white"/>
<path d="M507.559 220.807C507.238 220.154 507.068 219.404 507.068 218.64C507.068 217.876 507.238 217.126 507.559 216.474C507.736 216.116 507.906 215.739 508.069 215.363C508.232 214.986 508.387 214.601 508.535 214.215C508.789 213.523 509.192 212.93 509.7 212.504C510.208 212.078 510.801 211.835 511.414 211.801L515.706 211.636L515.269 194.304L510.955 194.46C510.347 194.471 509.749 194.273 509.226 193.887C508.703 193.502 508.277 192.943 507.995 192.275C507.668 191.536 507.31 190.819 506.922 190.127C506.565 189.501 506.353 188.764 506.309 187.998C506.266 187.233 506.394 186.467 506.678 185.785L508.706 181.103L496.377 172.896L494.357 177.578C494.057 178.252 493.613 178.81 493.074 179.191C492.535 179.572 491.921 179.76 491.301 179.735C490.622 179.717 489.942 179.744 489.266 179.818C488.66 179.898 488.047 179.768 487.496 179.445C486.945 179.121 486.477 178.615 486.143 177.982L483.864 173.392L471.979 182.572L474.251 187.162C474.569 187.799 474.737 188.533 474.737 189.282C474.737 190.032 474.569 190.766 474.251 191.403C474.066 191.789 473.889 192.174 473.718 192.578C473.548 192.982 473.378 193.377 473.23 193.781C472.975 194.465 472.571 195.047 472.064 195.462C471.556 195.877 470.966 196.108 470.359 196.131L466.067 196.296L466.496 213.637L470.781 213.463C471.382 213.444 471.975 213.631 472.497 214.001C473.019 214.372 473.449 214.913 473.741 215.565C474.096 216.374 474.486 217.158 474.91 217.915C475.255 218.531 475.455 219.254 475.488 220.003C475.521 220.752 475.385 221.497 475.095 222.156L473.075 226.838L485.44 234.953L487.46 230.271C487.76 229.597 488.204 229.04 488.743 228.661C489.283 228.281 489.897 228.095 490.516 228.123C491.198 228.141 491.88 228.114 492.559 228.04C493.169 227.965 493.783 228.101 494.335 228.434C494.886 228.766 495.352 229.281 495.682 229.922L497.953 234.466L509.838 225.286L507.559 220.807ZM486.839 217.226C484.605 216.168 482.694 214.269 481.374 211.796C480.055 209.323 479.391 206.4 479.478 203.436C479.565 200.472 480.397 197.616 481.858 195.268C483.319 192.92 485.335 191.198 487.625 190.343C489.914 189.488 492.362 189.544 494.625 190.502C496.887 191.459 498.852 193.271 500.243 195.684C501.634 198.096 502.381 200.988 502.381 203.954C502.38 206.92 501.632 209.812 500.24 212.223C498.766 214.772 496.654 216.645 494.233 217.55C491.812 218.455 489.217 218.341 486.853 217.226H486.839Z" fill="#EBEBEB"/>
<path d="M458.134 169.527C457.763 169.254 457.461 168.859 457.26 168.386C457.059 167.913 456.967 167.38 456.994 166.847C456.994 166.544 456.994 166.25 456.994 165.929C456.994 165.607 456.994 165.323 456.994 165.011C456.965 164.479 457.055 163.947 457.255 163.476C457.455 163.004 457.757 162.61 458.127 162.339L460.731 160.503L455.84 149.983L453.235 151.819C452.86 152.082 452.433 152.21 452.002 152.191C451.571 152.172 451.152 152.005 450.793 151.709C450.385 151.374 449.963 151.068 449.528 150.791C449.143 150.554 448.818 150.189 448.591 149.737C448.364 149.284 448.242 148.763 448.24 148.23V144.502H438.443V148.23C438.441 148.763 438.319 149.284 438.092 149.737C437.864 150.189 437.54 150.554 437.155 150.791C436.722 151.066 436.301 151.372 435.897 151.709C435.537 152.006 435.117 152.174 434.685 152.194C434.252 152.213 433.824 152.083 433.448 151.819L430.85 149.983L425.951 160.512L428.564 162.348C428.934 162.619 429.237 163.012 429.438 163.484C429.639 163.956 429.731 164.487 429.703 165.02C429.703 165.313 429.703 165.607 429.703 165.938C429.703 166.268 429.703 166.534 429.703 166.856C429.731 167.391 429.639 167.924 429.436 168.398C429.233 168.871 428.929 169.265 428.556 169.536L425.951 171.372L430.85 181.893L433.44 180.057C433.815 179.79 434.241 179.659 434.673 179.677C435.104 179.695 435.523 179.861 435.882 180.158C436.294 180.49 436.719 180.796 437.155 181.076C437.54 181.315 437.864 181.681 438.092 182.135C438.319 182.589 438.44 183.112 438.443 183.646V187.364H448.24V183.6C448.243 183.066 448.364 182.543 448.591 182.089C448.819 181.635 449.143 181.269 449.528 181.03C449.965 180.753 450.39 180.446 450.801 180.112C451.16 179.815 451.579 179.649 452.01 179.631C452.441 179.613 452.868 179.745 453.243 180.011L455.84 181.847L460.731 171.326L458.134 169.527ZM443.334 175.953C441.749 175.944 440.202 175.353 438.887 174.255C437.573 173.157 436.549 171.601 435.946 169.783C435.343 167.965 435.187 165.966 435.498 164.038C435.809 162.111 436.573 160.34 437.694 158.95C438.814 157.56 440.242 156.612 441.796 156.226C443.35 155.84 444.961 156.034 446.427 156.782C447.892 157.53 449.146 158.8 450.031 160.431C450.917 162.062 451.393 163.981 451.4 165.947C451.4 167.257 451.192 168.555 450.787 169.765C450.382 170.975 449.788 172.074 449.041 173C448.293 173.925 447.405 174.658 446.428 175.157C445.452 175.656 444.405 175.911 443.349 175.907L443.334 175.953Z" fill="#EBEBEB"/>
<path d="M102.764 141.372L107.655 151.892L110.253 150.056C110.628 149.794 111.055 149.665 111.486 149.684C111.917 149.704 112.335 149.871 112.695 150.166C113.105 150.501 113.53 150.807 113.967 151.084C114.352 151.322 114.676 151.687 114.903 152.139C115.13 152.591 115.252 153.113 115.255 153.646V157.373H125.06V153.646C125.063 153.113 125.185 152.591 125.412 152.139C125.639 151.687 125.963 151.322 126.348 151.084C126.784 150.805 127.209 150.499 127.62 150.166C127.98 149.871 128.398 149.704 128.829 149.684C129.26 149.665 129.687 149.794 130.062 150.056L132.66 151.892L137.544 141.372L134.939 139.536C134.557 139.259 134.246 138.853 134.043 138.366C133.84 137.878 133.753 137.329 133.792 136.782C133.792 136.479 133.792 136.185 133.792 135.864C133.792 135.543 133.792 135.267 133.792 134.946C133.764 134.414 133.856 133.882 134.057 133.41C134.258 132.939 134.561 132.545 134.932 132.275L137.544 130.439L132.652 119.909L130.048 121.745C129.672 122.008 129.245 122.137 128.814 122.117C128.383 122.098 127.965 121.931 127.606 121.635C127.198 121.301 126.775 120.994 126.34 120.717C125.956 120.479 125.632 120.114 125.405 119.662C125.177 119.21 125.055 118.689 125.053 118.156V114.429H115.255V118.156C115.252 118.689 115.13 119.21 114.903 119.662C114.676 120.114 114.352 120.479 113.967 120.717C113.532 120.994 113.11 121.301 112.702 121.635C112.343 121.931 111.924 122.098 111.494 122.117C111.063 122.137 110.636 122.008 110.26 121.745L107.655 119.909L102.764 130.439L105.369 132.275C105.738 132.546 106.04 132.939 106.24 133.411C106.44 133.883 106.53 134.414 106.501 134.946C106.501 135.24 106.501 135.543 106.501 135.864C106.501 136.185 106.501 136.461 106.501 136.782C106.528 137.316 106.437 137.849 106.236 138.322C106.034 138.795 105.732 139.189 105.361 139.463L102.764 141.372ZM112.125 135.864C112.125 133.894 112.596 131.968 113.478 130.329C114.361 128.691 115.615 127.415 117.083 126.661C118.55 125.907 120.165 125.711 121.723 126.096C123.281 126.481 124.711 127.43 125.834 128.824C126.956 130.218 127.72 131.994 128.029 133.926C128.338 135.859 128.178 137.862 127.57 139.682C126.961 141.502 125.93 143.057 124.609 144.15C123.288 145.244 121.735 145.826 120.146 145.824C119.092 145.824 118.049 145.567 117.075 145.066C116.101 144.565 115.217 143.831 114.472 142.906C113.727 141.981 113.136 140.883 112.733 139.675C112.331 138.467 112.124 137.172 112.125 135.864Z" fill="#EBEBEB"/>
<path d="M298.225 150.96C304.032 122.026 289.832 92.732 266.508 85.5288C243.185 78.3257 219.571 95.9414 213.764 124.875C207.958 153.808 222.158 183.103 245.481 190.306C268.804 197.509 292.419 179.893 298.225 150.96Z" fill="#EBEBEB"/>
<path d="M288.187 147.892C292.644 125.815 281.83 103.436 264.034 97.9066C246.237 92.3776 228.197 105.793 223.74 127.87C219.283 149.947 230.097 172.327 247.894 177.856C265.69 183.385 283.73 169.97 288.187 147.892Z" fill="white"/>
<path d="M279.012 145.109C282.217 129.338 274.509 113.33 261.796 109.354C249.083 105.378 236.179 114.94 232.974 130.711C229.769 146.482 237.477 162.49 250.19 166.466C262.903 170.442 275.807 160.88 279.012 145.109Z" fill="#EBEBEB"/>
<path d="M268.694 141.897C270.477 133.184 266.228 124.328 259.205 122.117C252.181 119.906 245.043 125.177 243.26 133.89C241.478 142.602 245.726 151.458 252.75 153.669C259.773 155.88 266.912 150.61 268.694 141.897Z" fill="white"/>
<path d="M261.746 139.733C262.556 135.793 260.638 131.785 257.462 130.78C254.286 129.775 251.055 132.154 250.245 136.094C249.434 140.034 251.352 144.043 254.528 145.048C257.704 146.053 260.936 143.673 261.746 139.733Z" fill="#EBEBEB"/>
<path d="M308.662 71.0568L258.811 132.899L260.009 134.385L309.86 72.5433L308.662 71.0568Z" fill="#C7C7C7"/>
<path d="M262.493 135.736L255.981 137.902L257.72 129.814L262.493 135.736Z" fill="#A6A6A6"/>
<path d="M317.601 67.7759L308.254 79.3703L300.921 82.1426L303.156 73.0544L312.509 61.4509L310.267 70.5483L317.601 67.7759Z" fill="#A6A6A6"/>
<path d="M33.522 358.956L94.5202 358.736L155.511 358.653L277.5 358.497L399.489 358.653L460.48 358.736L521.478 358.956L460.48 359.186L399.489 359.259L277.5 359.415L155.511 359.259L94.5202 359.177L33.522 358.956Z" fill="#263238"/>
<path d="M187.871 364.373H85.8918L77.996 278.448H179.975L187.871 364.373Z" fill="#37474F"/>
<path d="M182.314 358.607H90.391L83.5534 284.213H175.476L182.314 358.607Z" fill="white"/>
<path d="M245.517 358.608H140.844V364.373H245.517V358.608Z" fill="#37474F"/>
<path d="M245.51 358.608H192.829V364.373H245.51V358.608Z" fill="#263238"/>
<path d="M149.843 284.213L90.3392 358.029L88.5632 338.724L132.497 284.213H149.843Z" fill="#EBEBEB"/>
<path d="M180.76 341.661L167.099 358.608H149.754L178.984 322.347L180.76 341.661Z" fill="#EBEBEB"/>
<path d="M94.942 284.213L84.7226 296.89L84.1158 290.308L89.0294 284.213H94.942Z" fill="#EBEBEB"/>
<path d="M177.844 309.935L138.609 358.607H132.689L177.237 303.344L177.844 309.935Z" fill="#EBEBEB"/>
<path d="M102.653 284.213L85.507 305.483L85.359 303.83L101.173 284.213H102.653Z" fill="#EBEBEB"/>
<path d="M158.345 284.213L98.3756 358.607H96.8956L156.865 284.213H158.345Z" fill="#EBEBEB"/>
<path d="M176.845 299.057L128.841 358.607H127.361L176.697 297.404L176.845 299.057Z" fill="#EBEBEB"/>
<path d="M366.522 364.373H468.509L476.397 278.448H374.418L366.522 364.373Z" fill="#37474F"/>
<path d="M372.079 358.607H464.01L470.84 284.213H378.917L372.079 358.607Z" fill="white"/>
<path d="M413.556 358.608H308.883V364.373H413.556V358.608Z" fill="#37474F"/>
<path d="M361.564 358.608H308.883V364.373H361.564V358.608Z" fill="#263238"/>
<path d="M468.198 313.029L465.963 337.319L448.803 358.608H431.457L468.198 313.029Z" fill="#EBEBEB"/>
<path d="M435.601 284.213L375.639 358.607H372.079L373.855 339.302L418.263 284.213H435.601Z" fill="#EBEBEB"/>
<path d="M396.536 284.213L376.653 308.879L377.415 300.59L390.616 284.213H396.536Z" fill="#EBEBEB"/>
<path d="M461.945 284.213L401.975 358.607H396.055L456.025 284.213H461.945Z" fill="#EBEBEB"/>
<path d="M469.049 303.757L468.864 305.832L426.321 358.607H424.841L469.049 303.757Z" fill="#EBEBEB"/>
<path d="M468.154 284.213L408.191 358.607H406.711L466.681 284.213H468.154Z" fill="#EBEBEB"/>
<path d="M412.298 284.213L374.618 330.957L374.81 328.883L410.818 284.213H412.298Z" fill="#EBEBEB"/>
<path d="M180.649 235.008C193.295 266.688 212.025 298.35 217.042 304.28C230.525 320.327 266.518 331.866 277.13 332.233C281.711 332.389 288.045 294.641 284.663 290.244C281.281 285.847 236.844 273.849 234.462 271.59C232.811 269.984 211.64 244.987 197.58 230.143C180.094 211.7 177.326 226.654 180.649 235.008Z" fill="#F7A9A0"/>
<path d="M274.851 284.966L263.373 329.902C263.373 329.902 225.767 317.628 215.703 305.621C205.639 293.613 184.793 250.632 180.723 236.458C176.653 222.285 179.302 211.094 197.743 229.482C216.184 247.869 231.82 266.679 235.083 269.708C238.347 272.738 274.851 284.966 274.851 284.966Z" fill="#455A64"/>
<path d="M263.203 286.765C263.259 287.214 263.42 287.632 263.667 287.967C263.915 288.301 264.236 288.538 264.592 288.646C264.947 288.754 265.32 288.729 265.664 288.573C266.008 288.418 266.307 288.14 266.524 287.774C266.74 287.408 266.864 286.97 266.88 286.517C266.896 286.063 266.803 285.614 266.613 285.226C266.423 284.838 266.145 284.528 265.813 284.337C265.482 284.145 265.111 284.079 264.75 284.149C264.265 284.241 263.83 284.569 263.54 285.06C263.25 285.55 263.129 286.163 263.203 286.765Z" fill="#263238"/>
<path d="M253.99 283.469C254.044 283.919 254.205 284.338 254.451 284.674C254.698 285.01 255.019 285.248 255.375 285.358C255.73 285.467 256.104 285.443 256.448 285.289C256.793 285.134 257.093 284.856 257.31 284.49C257.527 284.124 257.652 283.687 257.668 283.233C257.684 282.779 257.592 282.329 257.402 281.94C257.212 281.552 256.933 281.242 256.601 281.05C256.269 280.858 255.899 280.793 255.537 280.862C255.297 280.907 255.067 281.01 254.859 281.165C254.652 281.321 254.471 281.525 254.327 281.768C254.184 282.01 254.08 282.285 254.022 282.577C253.964 282.869 253.953 283.172 253.99 283.469Z" fill="#263238"/>
<path d="M235.631 318.766C227.395 314.8 219.543 310.183 215.703 305.621C205.639 293.687 184.793 250.632 180.723 236.458C178.118 227.398 178.259 219.558 183.513 219.879L235.631 318.766Z" fill="#263238"/>
<path d="M120.664 358.589H215.606C215.991 354.284 196.455 234.274 187.153 219.228C185.163 216.005 178.599 215.115 173.027 215.978C171.571 216.183 170.132 216.546 168.727 217.061C168.682 217.086 168.635 217.105 168.587 217.116C167.451 217.52 166.381 218.17 165.427 219.035C149.909 234.43 119.917 357.533 120.664 358.589Z" fill="#455A64"/>
<path d="M179.428 246.382L183.468 236.633L188.678 243.683L187.405 250.706L182.255 251.523L179.428 246.382Z" fill="#263238"/>
<path d="M182.255 251.523L179.798 323.246L190.631 346.967L196.255 320.272L187.405 250.706L182.255 251.523Z" fill="#263238"/>
<path d="M182.107 235.329C180.627 235.256 170.696 225.635 167.647 218.135C167.44 217.621 168.209 212.333 168.898 205.843C169.297 201.905 169.638 197.508 169.786 193.469C169.786 192.633 172.043 194.258 172.043 194.258L176.224 195.69L190.062 200.473C190.062 200.473 187.842 208.863 187.664 215.914C187.658 216.473 187.69 217.032 187.76 217.584C187.765 217.676 187.765 217.768 187.76 217.86C188.115 221.027 184.556 235.449 182.107 235.329Z" fill="#F7A9A0"/>
<path d="M187.76 217.566C187.765 217.658 187.765 217.75 187.76 217.841C187.062 217.927 186.359 217.942 185.659 217.887C171.902 216.969 170.77 195.158 170.77 195.158L176.201 195.672L190.039 200.454C190.039 200.454 187.819 208.845 187.642 215.895C187.643 216.455 187.682 217.014 187.76 217.566Z" fill="#263238"/>
<path d="M166.574 163.762C164.495 172.804 168.727 198.701 173.974 204.374C181.574 212.636 193.828 213.114 199.408 201.822C204.817 190.889 198.831 157.263 192.985 152.131C184.386 144.576 169.638 150.396 166.574 163.762Z" fill="#F7A9A0"/>
<path d="M187.22 178.836C187.22 178.771 187.124 178.946 187.139 179.01C187.457 180.745 187.597 182.801 186.399 183.692C186.362 183.692 186.399 183.811 186.399 183.793C187.96 183.132 187.775 180.414 187.22 178.836Z" fill="#263238"/>
<path d="M185.696 177.321C183.402 177.66 184.119 183.334 186.243 183.022C188.367 182.709 187.62 177.027 185.696 177.321Z" fill="#263238"/>
<path d="M195.486 177.523C195.486 177.449 195.604 177.578 195.612 177.651C195.789 179.423 196.233 181.406 197.587 181.736C197.632 181.736 197.639 181.837 197.587 181.837C195.989 181.874 195.427 179.23 195.486 177.523Z" fill="#263238"/>
<path d="M196.514 175.439C198.734 174.778 199.667 180.414 197.58 181.02C195.493 181.626 194.62 175.99 196.514 175.439Z" fill="#263238"/>
<path d="M183.564 175.072C184.139 174.738 184.697 174.364 185.237 173.952C185.871 173.661 186.409 173.119 186.769 172.41C186.846 172.159 186.854 171.884 186.793 171.627C186.731 171.369 186.603 171.144 186.428 170.987C186.044 170.74 185.614 170.625 185.182 170.654C184.75 170.683 184.332 170.855 183.971 171.152C183.168 171.614 182.53 172.428 182.181 173.438C182.112 173.674 182.1 173.93 182.146 174.175C182.193 174.419 182.296 174.642 182.443 174.815C182.589 174.988 182.773 175.105 182.973 175.15C183.172 175.196 183.378 175.169 183.564 175.072Z" fill="#263238"/>
<path d="M197.92 172.235C197.269 172.235 196.67 172.088 196.033 172.006C195.357 172.041 194.69 171.796 194.139 171.308C193.987 171.117 193.891 170.869 193.867 170.602C193.843 170.336 193.892 170.067 194.006 169.839C194.284 169.428 194.644 169.116 195.052 168.935C195.459 168.755 195.897 168.712 196.322 168.811C197.208 168.852 198.051 169.296 198.69 170.059C198.825 170.246 198.914 170.477 198.946 170.724C198.979 170.972 198.953 171.226 198.871 171.455C198.79 171.685 198.657 171.881 198.488 172.019C198.32 172.157 198.123 172.232 197.92 172.235Z" fill="#263238"/>
<path d="M187.997 195.406C188.389 195.745 188.804 196.25 189.322 196.204C189.852 196.091 190.357 195.837 190.802 195.461C190.811 195.456 190.821 195.455 190.831 195.458C190.84 195.461 190.849 195.467 190.856 195.475C190.863 195.484 190.868 195.495 190.87 195.507C190.872 195.519 190.872 195.532 190.868 195.543C190.71 195.928 190.472 196.252 190.177 196.482C189.883 196.711 189.544 196.837 189.196 196.847C188.894 196.809 188.608 196.662 188.374 196.423C188.14 196.185 187.967 195.866 187.879 195.506C187.842 195.415 187.96 195.35 187.997 195.406Z" fill="#263238"/>
<path d="M193.399 191.082C192.922 192.165 192.229 193.079 191.386 193.735C190.92 194.075 190.378 194.223 189.84 194.157C188.656 194.01 188.471 192.734 188.537 191.587C188.577 190.981 188.674 190.383 188.826 189.806C190.202 190.824 191.804 191.27 193.399 191.082Z" fill="white"/>
<path d="M188.826 189.852C189.278 190.474 189.829 190.973 190.444 191.319C191.059 191.665 191.725 191.85 192.4 191.862C192.991 191.884 193.582 191.801 194.154 191.614C194.265 191.591 194.374 191.555 194.479 191.504C194.576 191.504 194.672 191.44 194.783 191.385C194.855 191.351 194.917 191.289 194.958 191.207C195 191.126 195.019 191.031 195.012 190.935C195.008 190.874 194.995 190.815 194.975 190.76V190.604C194.835 189.246 194.465 187.208 194.465 187.208C194.894 187.382 197.069 188.126 196.951 187.419C195.93 181.617 194.79 175.173 192.785 169.665C192.771 169.628 192.747 169.599 192.717 169.583C192.687 169.567 192.654 169.565 192.623 169.577C192.592 169.589 192.566 169.615 192.549 169.65C192.533 169.685 192.527 169.726 192.533 169.766C193.332 175.384 194.931 180.782 195.819 186.427C195.042 186.149 194.237 186.007 193.429 186.005C193.281 186.097 194.169 189.934 194.22 190.549V190.613C192.422 191.265 190.95 190.843 188.981 189.695C188.818 189.585 188.7 189.723 188.826 189.852Z" fill="#263238"/>
<path d="M169.031 183.958C174.011 183.04 173.656 171.629 173.656 171.629C173.656 171.629 182.01 168.334 182.314 160.118C182.314 160.118 191.194 165.084 197.247 161.036C203.3 156.987 200.903 148.285 199.97 146.494C199.038 144.704 195.915 148.909 195.915 148.909C195.915 148.909 194.909 143.906 193.762 143.584C192.615 143.263 191.778 146.55 191.778 146.55C191.778 146.55 183.143 144.622 175.706 146.237C168.269 147.853 165.671 157.896 165.671 157.896C165.671 157.896 161.801 159.668 160.92 163.404C160.04 167.14 165.849 184.518 169.031 183.958Z" fill="#263238"/>
<path d="M171.68 172.07C178.429 171.96 182.181 165.708 182.218 157.666C182.222 157.65 182.231 157.636 182.242 157.626C182.253 157.616 182.267 157.611 182.281 157.611C182.294 157.611 182.308 157.616 182.319 157.626C182.33 157.636 182.339 157.65 182.343 157.666C183.009 165.01 178.458 174.19 171.658 172.455C171.465 172.4 171.473 172.07 171.68 172.07Z" fill="#263238"/>
<path d="M165.834 157.694C165.85 157.69 165.866 157.692 165.881 157.701C165.895 157.709 165.907 157.723 165.915 157.741C165.922 157.759 165.925 157.779 165.922 157.798C165.92 157.818 165.912 157.836 165.901 157.85C164.169 159.255 162.141 160.43 161.083 162.761C159.81 165.58 160.536 168.839 161.468 171.611C162.896 175.898 165.434 181.351 168.949 183.389C169.157 183.508 169.001 183.875 168.801 183.774C164.613 181.654 161.49 174.549 160.343 169.399C159.056 163.633 161.609 159.732 165.834 157.694Z" fill="#263238"/>
<path d="M189.84 161.1C193.014 162.752 197.351 162.018 199.918 159.062C203.041 155.39 201.717 150.57 199.719 146.687C199.622 146.504 199.837 146.237 199.97 146.412C202.464 149.689 203.285 155.206 200.806 158.86C198.327 162.513 193.118 163.45 189.618 161.614C189.329 161.495 189.544 160.944 189.84 161.1Z" fill="#263238"/>
<path d="M186.066 189.108C184.916 189.163 183.778 188.817 182.779 188.109C181.781 187.401 180.963 186.36 180.418 185.103C179.874 183.847 179.624 182.426 179.699 181.002C179.773 179.578 180.168 178.209 180.839 177.05C181.509 175.891 182.429 174.989 183.493 174.447C184.556 173.905 185.721 173.744 186.855 173.982C187.989 174.221 189.046 174.85 189.906 175.797C190.766 176.744 191.394 177.972 191.719 179.34C192.178 181.277 191.999 183.361 191.22 185.134C190.442 186.906 189.128 188.224 187.568 188.796C187.079 188.975 186.575 189.08 186.066 189.108ZM185.629 174.897C185.188 174.924 184.751 175.013 184.327 175.164C183.03 175.64 181.929 176.711 181.247 178.159C180.565 179.607 180.354 181.323 180.656 182.958C180.959 184.592 181.752 186.023 182.875 186.957C183.997 187.891 185.365 188.26 186.699 187.987C188.033 187.714 189.233 186.821 190.054 185.489C190.876 184.158 191.257 182.487 191.121 180.819C190.985 179.15 190.341 177.609 189.32 176.509C188.3 175.409 186.98 174.832 185.629 174.897Z" fill="#455A64"/>
<path d="M199.97 186.354C197.624 186.464 195.404 183.6 194.909 179.662C194.648 177.79 194.866 175.865 195.53 174.154C195.799 173.412 196.209 172.761 196.724 172.257C197.24 171.754 197.845 171.412 198.49 171.262C199.139 171.16 199.798 171.255 200.411 171.54C201.023 171.824 201.57 172.29 202.005 172.896C203.056 174.277 203.736 176.028 203.951 177.908C204.469 182.058 202.871 185.831 200.385 186.308C200.248 186.338 200.109 186.353 199.97 186.354ZM198.919 172.226H198.609C198.095 172.358 197.615 172.641 197.207 173.049C196.799 173.458 196.475 173.981 196.263 174.576C195.677 176.098 195.488 177.808 195.723 179.469C196.174 183.058 198.194 185.665 200.244 185.271C202.294 184.876 203.581 181.599 203.13 178.028C202.946 176.36 202.349 174.804 201.421 173.575C201.101 173.148 200.714 172.807 200.284 172.574C199.854 172.34 199.389 172.218 198.919 172.217V172.226Z" fill="#455A64"/>
<path d="M191.66 180.277L191.046 179.607C191.845 178.468 193.806 176.77 195.538 178.45L195.034 179.249C193.451 177.743 191.697 180.176 191.66 180.277Z" fill="#455A64"/>
<path d="M164.842 187.437L164.102 187.116C164.221 186.666 165.338 182.7 167.062 181.984C168.787 181.268 179.746 180.479 180.212 180.442L180.264 181.461C177.097 181.7 168.594 182.434 167.321 182.948C166.049 183.462 165.138 186.354 164.842 187.437Z" fill="#455A64"/>
<path d="M172.198 185.106C172.198 185.106 167.203 176.935 164.191 179.184C161.179 181.434 165.131 193.423 168.794 194.919C169.253 195.144 169.744 195.252 170.237 195.238C170.731 195.224 171.217 195.088 171.667 194.837C172.117 194.587 172.523 194.227 172.859 193.779C173.196 193.331 173.456 192.804 173.626 192.229L172.198 185.106Z" fill="#F7A9A0"/>
<path d="M165.397 182.59C165.338 182.59 165.331 182.682 165.397 182.71C167.973 183.857 169.393 186.703 170.422 189.668C169.63 188.548 168.587 187.961 167.366 189.126C167.355 189.142 167.348 189.161 167.347 189.182C167.345 189.202 167.349 189.223 167.357 189.241C167.365 189.259 167.377 189.273 167.392 189.282C167.407 189.291 167.423 189.295 167.44 189.292C167.88 189.096 168.358 189.074 168.808 189.228C169.259 189.383 169.659 189.706 169.956 190.155C170.45 190.904 170.874 191.72 171.221 192.587C171.354 192.863 171.754 192.688 171.658 192.367V192.303C171.547 188.3 168.868 182.82 165.397 182.59Z" fill="#263238"/>
<path d="M187.834 218.19L182.891 233.236L167.913 214.234L163.644 220.32C163.644 220.32 178.281 250.485 178.37 249.127L183.372 236.22L190.543 245.225L190.002 222.661L187.834 218.19Z" fill="#455A64"/>
<path d="M190.787 234.09C190.594 230.363 190.483 226.608 190.158 222.909C190.158 222.771 189.98 222.716 189.951 222.909C189.344 226.498 190.136 240.727 190.113 244.133C189.817 243.747 183.453 236.211 183.402 236.33C182.321 238.377 178.651 247.777 178.399 248.631C176.083 243.839 167.218 226.416 164.472 221.881C164.457 221.856 164.435 221.839 164.41 221.833C164.385 221.826 164.36 221.832 164.338 221.848C164.316 221.863 164.3 221.889 164.292 221.918C164.284 221.948 164.285 221.98 164.295 222.009C166.337 227.076 178.074 250.531 178.259 250.467C180.186 246.033 181.93 241.48 183.483 236.826C184.556 238.46 190.964 246.924 190.987 246.41C191.096 242.302 191.029 238.189 190.787 234.09Z" fill="#263238"/>
<path d="M218.87 375.15L144.936 384.229L144.7 313.13L218.633 304.042L218.87 375.15Z" fill="#1679AB"/>
<path d="M168.831 302.297L144.633 305.272L144.7 313.13L170.592 309.944L168.831 302.297Z" fill="#1679AB"/>
<g opacity="0.1">
<path d="M218.87 375.15L144.936 384.229L144.7 313.13L218.633 304.042L218.87 375.15Z" fill="black"/>
<path d="M168.831 302.297L144.633 305.272L144.7 313.13L170.592 309.944L168.831 302.297Z" fill="black"/>
</g>
<path d="M218.818 375.159L147.512 383.917L137.314 312.616L213.32 304.703L218.818 375.159Z" fill="#EBEBEB"/>
<path d="M218.818 375.159L145.699 384.137L134.769 315.608L211.633 306.171L218.818 375.159Z" fill="white"/>
<path d="M218.685 375.177L144.596 384.275L133.777 317.224L207.873 308.127L218.685 375.177Z" fill="#1679AB"/>
<path d="M155.489 229.775C130.218 258.233 111.977 307.255 112.569 320.465C113.309 337.907 138.794 367.76 155.393 376.398C159.588 378.583 175.824 335.951 169.682 333.73C163.2 331.389 148.222 314.534 147.482 313.763C145.928 312.129 158.005 274.831 163.059 252.193C168.72 226.627 166.123 217.805 155.489 229.775Z" fill="#F7A9A0"/>
<path d="M145.98 369.881C162.06 384.275 183.905 387.396 187.671 386.919C190.89 386.524 192.541 386.285 192.541 386.285C198.32 385.725 200.392 382.329 200.392 382.329C200.392 382.329 207.23 384.11 208.784 379.171C210.545 373.663 200.599 372.203 195.523 367.237C183.883 355.936 169.882 335.832 166.789 332.16L145.98 369.881Z" fill="#F7A9A0"/>
<path d="M176.616 366.062C180.094 369.302 183.446 372.598 187.257 375.242C191.445 378.133 195.863 380.052 200.325 382.145C200.349 382.161 200.368 382.187 200.378 382.218C200.389 382.249 200.39 382.284 200.382 382.316C200.374 382.349 200.358 382.377 200.335 382.396C200.313 382.415 200.286 382.423 200.259 382.42C191.271 379.895 183.012 374.365 176.379 366.429C176.224 366.282 176.438 365.906 176.616 366.062Z" fill="#263238"/>
<path d="M170.096 373.791C173.619 376.711 179.842 381.796 192.578 386.12C192.622 386.12 192.615 386.221 192.578 386.212C184.265 384.921 176.404 380.789 169.874 374.278C169.66 374.039 169.86 373.626 170.096 373.791Z" fill="#263238"/>
<path d="M182.188 352.558C181.145 350.336 182.077 349.639 185.496 351.309C188.915 352.98 201.339 363.243 203.848 357.533C206.356 351.824 188.7 337.751 182.78 335.511C176.86 333.271 166.774 332.197 166.774 332.197C169.786 335.804 176.379 345.397 182.188 352.558Z" fill="#F7A9A0"/>
<path d="M146.557 373.084L166.692 331.159C166.692 331.159 147.852 314.764 147.763 313.13C147.674 311.496 161.002 266.312 165.027 244.078C169.053 221.844 167.062 211.241 149.421 236.027C131.779 260.813 109.157 302.518 110.356 320.391C111.555 338.265 146.557 373.084 146.557 373.084Z" fill="#455A64"/>
<path d="M161.683 265.302C160.943 266.89 160.166 268.451 159.507 270.085C159.285 270.617 159.07 271.15 158.856 271.682C159.019 271.039 159.189 270.406 159.359 269.763C160.388 265.733 161.387 261.685 162.26 257.591C162.267 257.568 162.266 257.542 162.258 257.52C162.249 257.497 162.234 257.48 162.215 257.471C162.197 257.463 162.176 257.464 162.158 257.474C162.14 257.485 162.126 257.503 162.119 257.527C159.796 264.467 157.872 271.618 155.962 278.751C154.053 285.884 152.262 293.163 150.516 300.415C149.554 304.473 148.562 308.549 147.808 312.671C147.812 312.685 147.819 312.697 147.829 312.706C147.839 312.714 147.851 312.719 147.863 312.719C147.875 312.719 147.887 312.714 147.897 312.706C147.907 312.697 147.914 312.685 147.919 312.671C149.029 309.136 149.968 305.51 150.93 301.912C151.892 298.313 152.869 294.724 153.809 291.125C155.289 285.379 156.769 279.629 158.249 273.876C158.882 272.798 159.422 271.641 159.862 270.424C160.55 268.754 161.098 267.009 161.705 265.302H161.683Z" fill="#263238"/>
<path d="M142.983 362.555C142.869 362.987 142.861 363.45 142.96 363.887C143.058 364.325 143.259 364.716 143.537 365.011C143.815 365.307 144.158 365.493 144.521 365.547C144.884 365.601 145.253 365.52 145.579 365.315C145.905 365.109 146.175 364.788 146.354 364.392C146.533 363.996 146.614 363.543 146.586 363.091C146.557 362.638 146.421 362.206 146.195 361.849C145.968 361.492 145.662 361.227 145.314 361.086C144.848 360.9 144.341 360.951 143.905 361.226C143.468 361.501 143.137 361.978 142.983 362.555Z" fill="#263238"/>
<path d="M135.945 354.486C135.833 354.918 135.826 355.381 135.926 355.818C136.026 356.254 136.228 356.644 136.507 356.938C136.785 357.232 137.128 357.418 137.491 357.47C137.854 357.523 138.222 357.441 138.548 357.234C138.874 357.028 139.143 356.706 139.321 356.31C139.499 355.914 139.579 355.461 139.55 355.009C139.521 354.556 139.385 354.125 139.158 353.769C138.931 353.412 138.624 353.148 138.276 353.008C138.045 352.915 137.801 352.879 137.559 352.903C137.317 352.927 137.08 353.01 136.864 353.147C136.647 353.285 136.455 353.473 136.297 353.703C136.14 353.933 136.02 354.199 135.945 354.486Z" fill="#263238"/>
<path d="M123.291 346.214C125.622 348.675 127.813 351.319 129.951 353.981C131.032 355.321 132.105 356.661 133.163 358.02C134.221 359.379 135.265 360.774 136.308 362.16C133.898 359.85 131.623 357.331 129.5 354.623C127.308 351.964 125.235 349.156 123.291 346.214Z" fill="#263238"/>
<path d="M381.1 156.978C382.684 150.662 389.61 136.782 400.791 140.959C416.709 146.926 416.102 186.088 423.28 199.206C436.274 222.89 435.12 244.684 422.806 246.749C409.035 249.053 397.291 229.583 400.747 190.825C402.908 166.589 398.209 155.188 394.257 155.454C390.306 155.72 387.686 161.568 387.686 161.568L381.1 156.978Z" fill="#263238"/>
<path d="M381.788 154.6C382.821 151.693 384.136 148.952 385.703 146.439C387.278 143.851 389.272 141.7 391.556 140.123C393.91 138.522 396.61 137.879 399.274 138.287C401.932 138.691 404.471 139.888 406.674 141.776C408.799 143.718 410.565 146.2 411.854 149.056C413.126 151.859 414.134 154.835 414.859 157.924C416.212 164.039 417.006 170.324 417.227 176.66C416.456 170.442 415.308 164.304 413.793 158.3C412.994 155.37 411.955 152.549 410.693 149.882C409.463 147.249 407.802 144.966 405.816 143.18C403.818 141.449 401.518 140.33 399.104 139.912C396.699 139.473 394.244 139.957 392.067 141.299C389.85 142.693 387.873 144.607 386.243 146.935C385.394 148.1 384.601 149.326 383.868 150.607C383.137 151.923 382.444 153.254 381.788 154.6Z" fill="#263238"/>
<path d="M401.657 177.394C401.531 181.268 401.058 185.105 400.71 188.943C400.362 192.78 399.926 196.599 399.63 200.427C399.334 204.255 399.141 208.092 399.163 211.92C399.13 215.729 399.4 219.533 399.97 223.276C400.492 226.987 401.576 230.541 403.167 233.75C404.853 236.888 406.969 239.635 409.42 241.865C411.873 244.131 414.723 245.644 417.737 246.281C419.252 246.609 420.794 246.689 422.325 246.52C423.093 246.431 423.854 246.278 424.605 246.061C425.377 245.869 426.124 245.544 426.825 245.097C425.464 246.095 423.953 246.739 422.385 246.988C420.821 247.295 419.231 247.351 417.656 247.153C416.072 246.925 414.517 246.46 413.024 245.767C411.533 245.05 410.113 244.126 408.791 243.013C407.463 241.902 406.224 240.635 405.091 239.231L404.269 238.157L403.478 237.046C402.941 236.296 402.446 235.502 401.998 234.668C400.284 231.305 399.106 227.566 398.527 223.652C397.343 215.877 397.706 207.982 398.49 200.308C398.882 196.452 399.422 192.633 399.97 188.833C400.518 185.032 401.213 181.222 401.657 177.394Z" fill="#263238"/>
<path d="M380.123 156.978C380.079 155.142 381.137 152.82 382.084 152.498C383.031 152.177 390.047 155.913 390.653 158.153C391.26 160.393 388.13 162.358 388.13 162.358L380.123 156.978Z" fill="#455A64"/>
<path d="M385.54 237.119C381.366 248.374 350.346 301.278 334.946 302.72C318.829 304.234 280.186 271.563 276.486 268.836C266.326 261.382 294.661 226.975 299.559 233.034C307.744 243.252 327.317 262.493 332.119 261.198C342.183 258.444 363.133 236.633 377.999 225.268C386.909 218.484 390.15 224.662 385.54 237.119Z" fill="#AD6359"/>
<path d="M278.891 270.59C277.145 269.148 263.04 259.427 257.749 250.063C254.952 245.106 248.492 230.418 250.712 227.884C252.74 225.608 255.307 229.105 255.307 229.105C255.307 229.105 252.503 222.486 255.352 219.365C258.201 216.244 262.293 222.422 262.293 222.422C262.293 222.422 259.814 215.363 262.833 212.508C265.852 209.653 269.123 216.703 269.123 216.703C269.123 216.703 266.615 210.387 269.9 209.359C273.859 208.083 277.426 220.375 281.259 225.112C282.125 226.186 300.151 245.308 300.151 245.308L278.891 270.59Z" fill="#AD6359"/>
<path d="M269.36 216.703C272.002 225.736 274.414 229.124 280.46 234.925C280.578 235.036 280.46 235.283 280.334 235.173C274.022 230.161 270.5 226.452 269.02 216.813C268.916 216.363 269.219 216.272 269.36 216.703Z" fill="#263238"/>
<path d="M262.515 222.376C265.912 231.465 268.509 235.164 274.459 241.82C274.54 241.911 274.422 242.095 274.333 242.012C268.05 236.091 264.609 232.3 262.167 222.661C262.056 222.229 262.36 221.963 262.515 222.376Z" fill="#263238"/>
<path d="M255.603 229.417C259.407 237.918 262.108 242.132 268.553 247.667C268.586 247.692 268.609 247.731 268.618 247.776C268.627 247.822 268.621 247.87 268.602 247.91C268.582 247.951 268.55 247.979 268.513 247.991C268.477 248.002 268.438 247.994 268.405 247.97C261.39 243.114 257.986 237.872 255.404 229.61C255.233 229.023 255.367 228.876 255.603 229.417Z" fill="#263238"/>
<path d="M306.256 242.526C306.256 242.526 302.26 231.556 299.641 227.214C297.021 222.872 282.488 211.158 280.268 214.913C277.404 219.751 284.708 228.573 288.763 232.309C288.763 232.309 282.103 243.509 286.276 251.247C290.45 258.986 306.256 242.526 306.256 242.526Z" fill="#AD6359"/>
<path d="M279.831 216.556C279.787 223.313 285.344 227.802 289.044 231.786C289.103 231.84 289.15 231.912 289.181 231.995C289.212 232.078 289.225 232.169 289.221 232.26C289.217 232.351 289.194 232.439 289.155 232.516C289.117 232.594 289.063 232.658 289 232.704C286.476 237.633 284.064 245.492 285.973 251.183C285.987 251.216 285.989 251.254 285.98 251.29C285.971 251.325 285.951 251.354 285.925 251.371C285.898 251.388 285.868 251.392 285.839 251.38C285.811 251.369 285.787 251.345 285.773 251.312C283.057 245.556 284.915 237.597 287.993 232.419C284.145 228.408 278.728 223.606 279.809 216.565C279.787 216.519 279.831 216.519 279.831 216.556Z" fill="#263238"/>
<path d="M385.118 240.314C380.286 252.248 352.122 303.206 336.907 304.014C321.693 304.822 289.828 288.72 289.828 288.72L313.434 244.115C313.434 244.115 329.781 258.748 332.349 258.858C334.917 258.968 369.26 230.849 377.252 224.662C385.244 218.475 392.94 220.889 385.118 240.314Z" fill="#1679AB"/>
<path d="M311.385 289.051C311.271 287.693 311.298 286.323 311.466 284.975C311.602 283.622 311.876 282.295 312.28 281.027C312.394 282.385 312.367 283.755 312.199 285.103C312.06 286.456 311.787 287.782 311.385 289.051Z" fill="white"/>
<path d="M358.382 280.119C358.272 278.761 358.299 277.392 358.463 276.043C358.599 274.688 358.875 273.362 359.285 272.095C359.471 274.82 359.163 277.562 358.382 280.119Z" fill="white"/>
<path d="M360.987 246.18C359.892 246.318 358.788 246.281 357.701 246.07C356.61 245.907 355.54 245.568 354.519 245.06C355.614 244.923 356.717 244.957 357.805 245.161C358.896 245.33 359.966 245.673 360.987 246.18Z" fill="white"/>
<path d="M323.106 261.575C322.014 261.709 320.913 261.672 319.828 261.465C318.736 261.304 317.666 260.965 316.646 260.455C317.738 260.318 318.839 260.352 319.924 260.556C321.016 260.724 322.085 261.066 323.106 261.575Z" fill="white"/>
<path d="M328.634 303.013C328.591 303.087 328.544 303.157 328.493 303.223H328.301L328.634 303.013Z" fill="white"/>
<path d="M301.92 273.032C303.333 270.947 305.103 269.279 307.1 268.148C306.405 269.206 305.604 270.15 304.717 270.957C303.86 271.794 302.92 272.492 301.92 273.032Z" fill="white"/>
<path d="M341.31 262.897C342.007 261.841 342.808 260.898 343.693 260.088C344.561 259.251 345.511 258.554 346.52 258.013C345.826 259.073 345.026 260.017 344.137 260.822C343.269 261.659 342.319 262.356 341.31 262.897Z" fill="white"/>
<path d="M328.242 276.887C329.932 278.629 331.278 280.827 332.179 283.313C330.493 281.566 329.148 279.369 328.242 276.887Z" fill="white"/>
<path d="M365.641 255.966C367.325 257.713 368.668 259.91 369.571 262.392C368.719 261.535 367.96 260.544 367.314 259.445C366.64 258.378 366.078 257.209 365.641 255.966Z" fill="white"/>
<path d="M318.548 251.358C315.588 258.031 312.709 264.77 309.498 271.269C306.394 277.759 303.014 284.041 299.374 290.088C299.358 290.107 299.337 290.119 299.314 290.122C299.292 290.124 299.269 290.118 299.25 290.103C299.231 290.089 299.216 290.067 299.208 290.041C299.199 290.015 299.198 289.986 299.204 289.959C302.046 283.304 305.294 276.878 308.454 270.452C311.614 264.026 315.033 257.655 318.207 251.174C318.333 250.917 318.659 251.101 318.548 251.358Z" fill="#263238"/>
<path d="M385.118 240.314C380.286 252.248 352.122 303.206 336.907 304.014C333.207 304.207 328.538 303.408 323.587 302.077C335.427 286.388 368.483 242.141 383.794 221.66C388.433 221.311 390.72 226.526 385.118 240.314Z" fill="#263238"/>
<path d="M357.05 358.589H446.346C446.346 358.589 411.625 249.54 393.132 227.6C388.108 221.642 375.691 222.092 369.608 232.144C364.62 240.406 350.775 273.215 350.146 285.03C349.517 296.844 356.983 308.494 356.983 308.494L357.05 358.589Z" fill="#1679AB"/>
<path d="M368.461 317.729C368.35 316.375 368.378 315.008 368.542 313.662C368.678 312.308 368.954 310.981 369.364 309.715C369.475 311.07 369.445 312.436 369.275 313.782C369.138 315.135 368.865 316.461 368.461 317.729Z" fill="white"/>
<path d="M429.822 338.255C429.721 336.887 429.761 335.508 429.94 334.152C430.075 332.798 430.352 331.471 430.761 330.205C430.873 331.562 430.843 332.932 430.673 334.281C430.526 335.645 430.24 336.981 429.822 338.255Z" fill="white"/>
<path d="M391.297 356.184C391.187 354.829 391.214 353.463 391.379 352.117C391.514 350.763 391.79 349.436 392.2 348.17C392.312 349.524 392.282 350.891 392.111 352.237C391.975 353.59 391.701 354.916 391.297 356.184Z" fill="white"/>
<path d="M382.417 273.876C382.309 272.521 382.339 271.155 382.506 269.809C382.635 268.455 382.909 267.127 383.32 265.862C383.516 268.584 383.207 271.325 382.417 273.876Z" fill="white"/>
<path d="M406.149 307.025C406.048 305.663 406.085 304.29 406.26 302.94C406.393 301.586 406.667 300.259 407.074 298.993C407.27 301.717 406.962 304.462 406.171 307.016L406.149 307.025Z" fill="white"/>
<path d="M358.382 280.119C358.272 278.761 358.299 277.392 358.463 276.043C358.599 274.688 358.875 273.362 359.285 272.095C359.471 274.82 359.163 277.562 358.382 280.119Z" fill="white"/>
<path d="M389.788 312.707C387.592 312.948 385.381 312.568 383.32 311.597C384.414 311.455 385.518 311.489 386.606 311.698C387.696 311.868 388.765 312.207 389.788 312.707Z" fill="white"/>
<path d="M416.724 281.027C415.629 281.164 414.526 281.13 413.438 280.926C412.346 280.758 411.277 280.416 410.256 279.907C412.452 279.676 414.662 280.059 416.724 281.027Z" fill="white"/>
<path d="M368.661 349.969C367.569 350.103 366.467 350.066 365.382 349.859C364.29 349.699 363.22 349.359 362.2 348.849C363.292 348.712 364.394 348.746 365.479 348.95C366.57 349.118 367.64 349.461 368.661 349.969Z" fill="white"/>
<path d="M418.766 322.521C417.672 322.662 416.568 322.628 415.48 322.42C414.39 322.25 413.321 321.91 412.298 321.41C413.393 321.269 414.497 321.303 415.584 321.511C416.675 321.682 417.744 322.021 418.766 322.521Z" fill="white"/>
<path d="M376.49 337.576C377.187 336.523 377.988 335.583 378.873 334.776C379.739 333.936 380.689 333.239 381.699 332.702C380.288 334.786 378.518 336.452 376.519 337.576H376.49Z" fill="white"/>
<path d="M410.256 345.581C410.949 344.521 411.75 343.577 412.639 342.772C413.507 341.935 414.456 341.238 415.466 340.697C414.057 342.788 412.287 344.458 410.286 345.581H410.256Z" fill="white"/>
<path d="M419.195 306.392C419.892 305.339 420.693 304.398 421.578 303.592C422.444 302.751 423.394 302.054 424.405 301.517C423.713 302.576 422.912 303.518 422.022 304.317C421.156 305.157 420.206 305.855 419.195 306.392Z" fill="white"/>
<path d="M365.878 292.31C366.575 291.254 367.376 290.31 368.261 289.5C369.129 288.663 370.079 287.966 371.088 287.426C370.394 288.486 369.594 289.43 368.705 290.235C367.837 291.072 366.887 291.769 365.878 292.31Z" fill="white"/>
<path d="M400.407 265.302C401.104 264.246 401.904 263.303 402.789 262.493C403.657 261.656 404.607 260.959 405.616 260.418C404.923 261.478 404.122 262.422 403.233 263.227C402.366 264.064 401.416 264.761 400.407 265.302Z" fill="white"/>
<path d="M359.351 324.568C358.666 325.605 357.878 326.53 357.006 327.322V326.202C357.734 325.546 358.521 324.998 359.351 324.568Z" fill="white"/>
<path d="M382.817 248.062C383.514 247.006 384.314 246.063 385.2 245.253C386.067 244.416 387.017 243.719 388.026 243.178C386.618 245.269 384.847 246.938 382.846 248.062H382.817Z" fill="white"/>
<path d="M353.372 297.9C354.223 298.765 354.984 299.758 355.637 300.856C356.311 301.933 356.873 303.111 357.309 304.363C355.624 302.616 354.278 300.419 353.372 297.937V297.9Z" fill="white"/>
<path d="M365.641 255.966C367.325 257.713 368.668 259.91 369.571 262.392C368.719 261.535 367.96 260.544 367.314 259.445C366.64 258.378 366.078 257.209 365.641 255.966Z" fill="white"/>
<path d="M396.64 323.779C398.32 325.529 399.663 327.725 400.569 330.205C399.732 329.339 398.986 328.346 398.349 327.249C397.661 326.188 397.087 325.022 396.64 323.779Z" fill="white"/>
<path d="M428.756 350.41C429.607 351.275 430.368 352.268 431.02 353.366C431.695 354.442 432.257 355.621 432.693 356.873C431.837 356.015 431.075 355.021 430.428 353.917C429.752 352.841 429.19 351.663 428.756 350.41Z" fill="white"/>
<path d="M396.011 236.165C397.694 237.912 399.037 240.109 399.94 242.591C398.257 240.843 396.914 238.646 396.011 236.165Z" fill="white"/>
<path d="M390.246 287.848C391.101 288.708 391.862 289.702 392.511 290.804C393.189 291.877 393.752 293.056 394.183 294.311C392.498 292.564 391.152 290.367 390.246 287.885V287.848Z" fill="white"/>
<path d="M387.198 228.655C386.709 230.299 379.058 240.204 372.893 238.836C370.881 238.386 372.361 224.662 372.361 224.662L372.287 223.616L371.214 209.001L385.784 200.455L387.878 199.353C387.878 199.353 387.96 203.374 388.019 208.386C388.019 208.625 388.019 208.854 388.019 209.102C388.019 209.35 388.019 209.653 388.019 209.919C388.019 210.663 388.019 211.434 388.019 212.196C388.019 212.774 388.019 213.334 388.019 213.949V215.785C387.988 220.094 387.714 224.394 387.198 228.655Z" fill="#AD6359"/>
<path d="M388.019 208.386C386.446 212.19 384.223 215.523 381.506 218.153C378.789 220.783 375.643 222.647 372.287 223.616L371.214 209.001L385.784 200.455L387.878 199.353C387.878 199.353 387.96 203.374 388.019 208.386Z" fill="#263238"/>
<path d="M356.221 187.465C354.578 213.169 366.788 217.272 371.258 217.704C375.306 218.098 389.151 218.805 392.925 193.468C396.699 168.132 387.597 159.071 378.369 157.556C369.142 156.042 357.871 161.779 356.221 187.465Z" fill="#AD6359"/>
<path d="M359.714 182.003C360.188 181.919 360.657 181.803 361.12 181.654C361.629 181.619 362.114 181.374 362.496 180.956C362.596 180.796 362.65 180.599 362.65 180.396C362.65 180.194 362.596 179.997 362.496 179.836C362.263 179.554 361.974 179.354 361.658 179.257C361.342 179.16 361.01 179.17 360.698 179.285C360.035 179.402 359.429 179.817 358.996 180.451C358.904 180.603 358.85 180.786 358.84 180.976C358.831 181.166 358.866 181.355 358.943 181.521C359.019 181.686 359.133 181.819 359.27 181.905C359.407 181.991 359.562 182.025 359.714 182.003Z" fill="#263238"/>
<path d="M373.493 182.37C373.012 182.296 372.568 182.122 372.094 181.994C371.585 181.942 371.104 181.684 370.725 181.259C370.626 181.099 370.572 180.902 370.572 180.699C370.572 180.497 370.626 180.3 370.725 180.139C370.963 179.862 371.257 179.668 371.576 179.58C371.895 179.491 372.227 179.51 372.538 179.634C373.199 179.758 373.798 180.183 374.218 180.828C374.305 180.981 374.355 181.163 374.361 181.351C374.368 181.539 374.33 181.725 374.254 181.887C374.178 182.05 374.065 182.181 373.93 182.267C373.796 182.353 373.644 182.388 373.493 182.37Z" fill="#263238"/>
<path d="M370.252 188.851C370.252 188.778 370.363 188.934 370.355 189.007C370.266 190.76 370.4 192.78 371.665 193.413C371.702 193.413 371.665 193.524 371.665 193.514C370.096 193.175 369.941 190.485 370.252 188.851Z" fill="#263238"/>
<path d="M371.561 187.07C373.841 186.942 373.87 192.578 371.761 192.725C369.652 192.872 369.652 187.171 371.561 187.07Z" fill="#263238"/>
<path d="M372.457 187.364C372.864 187.676 373.256 188.282 373.737 188.282C374.218 188.282 374.706 187.749 375.069 187.18C375.069 187.125 375.143 187.18 375.15 187.244C375.15 188.328 374.832 189.448 373.9 189.613C372.967 189.778 372.42 188.814 372.198 187.722C372.161 187.529 372.301 187.272 372.457 187.364Z" fill="#263238"/>
<path d="M362.4 188.456C362.4 188.392 362.297 188.548 362.297 188.621C362.363 190.375 362.2 192.394 360.928 193C360.883 193 360.891 193.101 360.928 193.092C362.496 192.78 362.689 190.109 362.4 188.456Z" fill="#263238"/>
<path d="M361.12 186.648C358.841 186.473 358.73 192.156 360.839 192.303C362.948 192.449 363.029 186.795 361.12 186.648Z" fill="#263238"/>
<path d="M360.158 186.997C359.795 187.281 359.418 187.814 358.996 187.841C358.574 187.869 358.138 187.235 357.834 186.639C357.797 186.583 357.76 186.639 357.76 186.703C357.716 187.786 357.982 188.915 358.811 189.154C359.64 189.393 360.151 188.456 360.38 187.382C360.424 187.189 360.306 186.877 360.158 186.997Z" fill="#263238"/>
<path d="M370.355 202.731C370.037 203.163 369.719 203.75 369.208 203.833C368.684 203.853 368.162 203.737 367.676 203.493C367.667 203.49 367.656 203.49 367.647 203.494C367.637 203.498 367.629 203.505 367.623 203.515C367.616 203.525 367.613 203.537 367.612 203.549C367.611 203.561 367.613 203.574 367.617 203.585C367.833 203.915 368.117 204.166 368.439 204.313C368.76 204.46 369.108 204.497 369.445 204.42C369.732 204.313 369.986 204.101 370.174 203.811C370.362 203.52 370.474 203.166 370.496 202.795C370.511 202.694 370.4 202.667 370.355 202.731Z" fill="#263238"/>
<path d="M364.472 196.342C364.472 196.342 364.169 198.967 364.161 200.197C364.161 200.317 364.406 200.372 364.739 200.399C364.739 200.399 364.739 200.399 364.783 200.399C365.636 200.601 366.517 200.505 367.329 200.125C368.142 199.744 368.853 199.093 369.386 198.242C369.397 198.218 369.401 198.19 369.397 198.162C369.394 198.135 369.384 198.109 369.368 198.09C369.352 198.07 369.332 198.057 369.31 198.053C369.287 198.049 369.265 198.054 369.245 198.068C367.968 199.135 366.447 199.663 364.909 199.573C364.842 199.233 365.553 195.112 365.39 195.093C364.616 195.179 363.855 195.389 363.125 195.718C363.636 190.21 364.842 184.913 365.279 179.451C365.288 179.408 365.282 179.363 365.264 179.325C365.246 179.287 365.217 179.26 365.183 179.249C365.148 179.238 365.112 179.244 365.081 179.266C365.051 179.289 365.029 179.325 365.02 179.368C363.436 184.876 362.741 191.128 362.104 196.81C362.015 197.471 364.08 196.553 364.472 196.342Z" fill="#263238"/>
<path d="M364.953 200.124C365.551 201.112 366.343 201.893 367.255 202.391C367.755 202.643 368.306 202.694 368.831 202.538C369.985 202.18 370.022 200.877 369.822 199.784C369.711 199.19 369.544 198.614 369.327 198.068C368.083 199.315 366.551 200.036 364.953 200.124Z" fill="#263238"/>
<path d="M367.255 202.41C367.755 202.661 368.306 202.713 368.831 202.557C369.985 202.199 370.022 200.895 369.822 199.803C368.594 199.913 367.373 200.932 367.255 202.41Z" fill="#EB9481"/>
<path d="M392.008 196.03C390.683 195.224 389.55 194.005 388.72 192.492C387.889 190.979 387.39 189.225 387.272 187.401C383.665 185.42 380.55 182.279 378.251 178.303C378.384 178.836 379.368 182.654 379.923 184.582C366.825 181.47 362.815 168.976 362.815 168.976C358.545 174.218 357.686 177.578 357.065 179.249C357.065 179.249 357.006 169.279 361.164 162.624C366.256 154.472 383.364 152.36 391.216 163.074C399.689 174.649 392.008 196.03 392.008 196.03Z" fill="#263238"/>
<path d="M370 181.837C372.101 183.278 374.363 184.321 376.712 184.931C373.02 183.671 369.687 181.152 367.092 177.661C365.99 176.175 365.045 174.522 364.28 172.74C363.383 170.832 362.8 168.723 362.563 166.534C362.563 166.5 362.552 166.468 362.533 166.444C362.513 166.419 362.487 166.406 362.459 166.406C362.432 166.406 362.406 166.419 362.386 166.444C362.367 166.468 362.356 166.5 362.356 166.534C362.404 168.732 362.749 170.904 363.377 172.96C364.064 174.966 365.045 176.796 366.27 178.358C367.365 179.737 368.611 180.917 369.97 181.865" fill="#263238"/>
<path d="M389.514 195.121C389.514 195.121 393.998 187.033 396.914 189.016C399.829 190.999 396.522 202.685 393.081 204.31C392.65 204.556 392.184 204.691 391.71 204.708C391.236 204.725 390.765 204.622 390.324 204.407C389.883 204.192 389.482 203.868 389.144 203.455C388.806 203.043 388.539 202.55 388.359 202.006L389.514 195.121Z" fill="#AD6359"/>
<path d="M395.9 192.339C395.959 192.339 395.967 192.422 395.9 192.45C393.488 193.689 392.2 196.489 391.349 199.38C392.089 198.26 393.044 197.645 394.25 198.701C394.309 198.756 394.25 198.876 394.183 198.857C393.759 198.688 393.304 198.685 392.878 198.849C392.453 199.014 392.079 199.337 391.808 199.775C391.369 200.525 390.992 201.328 390.683 202.171C390.572 202.447 390.18 202.3 390.261 201.997V201.923C390.246 198.132 392.614 192.78 395.9 192.339Z" fill="#263238"/>
<path d="M390.232 203.723C390.232 204.086 390.318 204.441 390.481 204.743C390.644 205.045 390.875 205.28 391.145 205.419C391.416 205.558 391.713 205.594 392 205.523C392.287 205.452 392.551 205.278 392.758 205.021C392.965 204.764 393.106 204.437 393.163 204.081C393.22 203.725 393.191 203.355 393.079 203.02C392.967 202.685 392.777 202.398 392.534 202.196C392.29 201.994 392.004 201.887 391.712 201.887C391.322 201.898 390.951 202.095 390.675 202.437C390.4 202.779 390.241 203.239 390.232 203.723Z" fill="white"/>
<path d="M365.627 233.897C365.627 233.897 361.394 248.824 369.053 249.88C376.712 250.935 396.714 232.584 396.714 232.584C396.714 232.584 391.164 221.44 382.299 222.633C374.936 223.616 365.627 233.897 365.627 233.897Z" fill="#AD6359"/>
<path d="M401.82 251.376C401.82 269.809 393.28 325.082 385.081 332.527C368.675 347.426 330.203 346.398 319.591 346.628C315.011 346.719 308.994 308.889 312.406 304.537C315.817 300.186 362.726 298.57 365.094 296.34C366.759 294.788 379.99 267.882 387.649 250.587C397.979 227.205 401.82 242.086 401.82 251.376Z" fill="#AD6359"/>
<path d="M320.546 302.518C320.546 302.518 306.7 300.617 297.606 299.911C292.522 299.507 283.768 299.791 279.927 301.609C274.185 304.363 251.578 320.309 254.575 327.194C257.291 333.418 264.195 326.533 264.195 326.533C264.195 326.533 256.055 333.179 260.302 338.338C264.55 343.497 272.882 333.473 272.882 333.473C272.882 333.473 263.862 339.788 268.798 344.764C273.082 349.069 283.649 338.769 283.649 338.769C283.649 338.769 273.6 344.121 277.641 349.069C282.081 354.577 299.508 341.56 299.508 341.56C310.837 346.242 318.148 347.151 326.821 346.472C328.39 346.352 320.546 302.518 320.546 302.518Z" fill="#AD6359"/>
<path d="M270.337 335.74L272.387 333.5C273.692 332.007 275.065 330.61 276.501 329.314C277.922 328.075 279.38 326.927 280.867 325.835C282.354 324.743 284.116 323.705 285.662 322.493C285.674 322.482 285.687 322.475 285.702 322.47C285.716 322.466 285.731 322.466 285.745 322.469C285.76 322.473 285.773 322.48 285.785 322.491C285.797 322.501 285.807 322.515 285.815 322.531C285.822 322.547 285.827 322.564 285.828 322.582C285.83 322.6 285.828 322.619 285.823 322.636C285.819 322.653 285.811 322.669 285.801 322.683C285.791 322.696 285.779 322.707 285.766 322.714C284.229 323.889 282.747 325.17 281.326 326.551C279.898 327.845 278.477 329.167 277.056 330.48C275.635 331.793 274.229 332.931 272.816 334.152C272.076 334.767 271.425 335.428 270.744 336.08C270.126 336.76 269.462 337.375 268.761 337.916C268.694 337.962 268.627 337.842 268.672 337.769C269.168 337.023 269.727 336.343 270.337 335.74Z" fill="#263238"/>
<path d="M262.522 327.956C263.462 326.441 268.635 321.208 270.019 319.969C272.693 317.557 275.557 315.484 278.566 313.782C278.587 313.774 278.61 313.776 278.631 313.786C278.652 313.796 278.67 313.815 278.682 313.839C278.693 313.863 278.698 313.89 278.696 313.918C278.694 313.946 278.684 313.972 278.669 313.993C275.998 316.416 273.297 318.785 270.596 321.162C269.271 322.319 263.41 327.818 262.737 328.295C262.574 328.415 262.426 328.121 262.522 327.956Z" fill="#263238"/>
<path d="M277.5 343.332C279.751 340.69 282.142 338.236 284.656 335.988C287.385 333.982 290.233 332.233 293.173 330.755C293.284 330.71 293.373 330.893 293.277 330.967C290.554 332.977 287.816 334.914 285.137 337.08C283.849 338.136 278.921 342.717 277.618 343.589C277.559 343.635 277.441 343.424 277.5 343.332Z" fill="#263238"/>
<path d="M329.885 349.409L317.231 299.525C317.231 299.525 363.273 295.853 364.768 294.935C366.263 294.017 382.676 258.004 389.188 244.014C395.7 230.023 405.735 235.752 401.983 267.358C398.216 299.112 394.072 323.788 388.337 331.132C381.352 340.018 355.896 349.198 329.885 349.409Z" fill="#1679AB"/>
<path d="M368.461 317.729C368.35 316.375 368.378 315.008 368.542 313.662C368.678 312.308 368.954 310.981 369.364 309.715C369.475 311.07 369.445 312.436 369.275 313.782C369.138 315.135 368.865 316.461 368.461 317.729Z" fill="white"/>
<path d="M343.02 346.279C342.906 344.921 342.933 343.552 343.101 342.203C343.239 340.85 343.513 339.524 343.915 338.255C344.029 339.613 344.002 340.983 343.834 342.331C343.697 343.684 343.424 345.011 343.02 346.279Z" fill="white"/>
<path d="M382.417 273.876C382.309 272.521 382.339 271.155 382.506 269.809C382.635 268.455 382.909 267.127 383.32 265.862C383.516 268.584 383.207 271.325 382.417 273.876Z" fill="white"/>
<path d="M389.788 312.707C387.592 312.948 385.381 312.568 383.32 311.597C384.414 311.455 385.518 311.489 386.606 311.698C387.696 311.868 388.765 312.207 389.788 312.707Z" fill="white"/>
<path d="M345.58 314.277C344.486 314.419 343.382 314.385 342.294 314.176C341.204 314.007 340.135 313.668 339.112 313.167C340.207 313.025 341.311 313.059 342.398 313.267C343.488 313.439 344.557 313.778 345.58 314.277Z" fill="white"/>
<path d="M376.49 337.576C377.187 336.523 377.988 335.583 378.873 334.776C379.739 333.936 380.689 333.239 381.699 332.702C380.288 334.786 378.518 336.452 376.519 337.576H376.49Z" fill="white"/>
<path d="M323.424 307.888C324.122 306.835 324.922 305.895 325.807 305.088C326.673 304.248 327.623 303.55 328.634 303.013C327.943 304.073 327.141 305.014 326.251 305.813C325.385 306.654 324.435 307.351 323.424 307.888Z" fill="white"/>
<path d="M371.088 287.426C370.394 288.486 369.594 289.43 368.705 290.235C368.034 290.868 367.321 291.43 366.574 291.915C366.803 291.474 367.055 290.997 367.314 290.464C367.617 290.134 367.935 289.813 368.254 289.546C369.122 288.693 370.074 287.98 371.088 287.426Z" fill="white"/>
<path d="M402.405 262.906C402.405 263.292 402.345 263.677 402.308 264.072C401.711 264.573 401.074 264.997 400.407 265.339C400.997 264.438 401.667 263.622 402.405 262.906Z" fill="white"/>
<path d="M354.142 329.452C354.839 328.396 355.639 327.453 356.525 326.643C357.392 325.806 358.342 325.109 359.351 324.568C358.658 325.628 357.857 326.572 356.969 327.377C356.101 328.214 355.151 328.911 354.142 329.452Z" fill="white"/>
<path d="M353.372 297.9C354.223 298.765 354.984 299.758 355.637 300.856C356.311 301.933 356.873 303.111 357.309 304.363C355.624 302.616 354.278 300.419 353.372 297.937V297.9Z" fill="white"/>
<path d="M399.94 242.618C399.09 241.759 398.332 240.769 397.683 239.671C397.13 238.781 396.649 237.825 396.248 236.816C396.383 236.807 396.519 236.807 396.655 236.816C397.241 237.517 397.78 238.275 398.268 239.084C398.946 240.168 399.508 241.356 399.94 242.618Z" fill="white"/>
<path d="M390.246 287.848C391.101 288.708 391.862 289.702 392.511 290.804C393.189 291.877 393.752 293.056 394.183 294.311C392.498 292.564 391.152 290.367 390.246 287.885V287.848Z" fill="white"/>
<path d="M379.183 265.1C377.703 267.854 376.29 270.773 374.906 273.647L374.788 273.885C374.854 273.665 374.928 273.445 374.995 273.234C375.446 271.801 375.846 270.342 376.334 268.937C376.334 268.855 376.268 268.781 376.238 268.864C375.735 270.25 375.18 271.618 374.706 273.004C374.388 273.922 374.1 274.904 373.826 275.868C372.797 277.998 371.769 280.128 370.755 282.294C369.393 285.177 368.039 288.078 366.67 290.96C366.33 291.667 366.004 292.374 365.656 293.081C365.412 293.707 364.987 294.195 364.465 294.448C363.846 294.631 363.214 294.735 362.578 294.761C361.904 294.843 361.231 294.944 360.558 295.045C357.494 295.513 354.453 296.138 351.389 296.633C351.315 296.633 351.315 296.789 351.389 296.78C354.201 296.514 357.02 296.385 359.832 296.101C361.224 295.963 362.615 295.844 363.991 295.624C364.524 295.589 365.037 295.366 365.471 294.981C365.852 294.551 366.166 294.038 366.396 293.466C369.184 287.481 371.971 281.492 374.758 275.501C376.334 272.104 377.933 268.726 379.383 265.247C379.399 265.214 379.403 265.175 379.396 265.138C379.388 265.101 379.369 265.069 379.342 265.05C379.316 265.03 379.284 265.024 379.255 265.034C379.225 265.043 379.199 265.067 379.183 265.1Z" fill="#263238"/>
<path d="M402.049 278.42C401.907 279.564 401.687 280.691 401.391 281.789C401.169 282.772 400.954 283.754 400.717 284.727C400.481 285.7 400.133 286.921 399.829 288.013C400.451 283.154 400.944 278.258 401.309 273.325C401.309 273.178 401.117 273.151 401.095 273.325C400.355 280.183 399.341 287.013 398.179 293.769C397.017 300.526 395.611 307.273 394.02 313.91C393.236 317.178 392.407 320.437 391.49 323.65C390.772 326.465 389.682 329.111 388.263 331.481C386.585 333.846 384.484 335.691 382.129 336.869C379.676 338.269 377.161 339.495 374.595 340.541C368.764 342.91 362.755 344.415 356.791 346.187C356.724 346.187 356.739 346.343 356.791 346.334C362.265 345.385 367.686 344.024 373.027 342.258C375.731 341.364 378.388 340.26 380.982 338.953C383.357 337.723 385.806 336.392 387.723 334.207C389.477 332.064 390.831 329.469 391.689 326.606C392.688 323.604 393.473 320.483 394.25 317.426C395.952 310.651 397.373 303.821 398.534 296.872C398.865 294.859 399.173 292.842 399.459 290.822C400.125 288.903 400.664 286.919 401.073 284.892C401.295 283.836 401.509 282.781 401.679 281.707C401.85 280.633 401.901 279.513 402.146 278.475C402.183 278.338 402.057 278.31 402.049 278.42Z" fill="#263238"/>
<path d="M337.891 345.388C335.805 338.219 333.599 331.104 331.772 323.834C329.877 316.66 328.288 309.367 327.013 301.985C327.014 301.957 327.021 301.93 327.035 301.908C327.049 301.886 327.068 301.87 327.09 301.863C327.112 301.856 327.135 301.858 327.156 301.868C327.177 301.878 327.194 301.897 327.206 301.921C329.374 308.953 331.135 316.214 332.956 323.393C334.776 330.572 336.389 337.962 338.232 345.196C338.298 345.471 337.98 345.664 337.891 345.388Z" fill="#263238"/>
<path d="M330.136 298.35C329.034 298.277 327.93 298.277 326.828 298.35C325.726 298.35 324.608 298.442 323.521 298.497C321.301 298.616 319.118 298.818 316.92 299.048C316.877 299.05 316.835 299.064 316.797 299.089C316.759 299.114 316.726 299.15 316.701 299.194C316.676 299.237 316.659 299.287 316.652 299.34C316.645 299.392 316.648 299.446 316.661 299.498C316.928 300.509 317.307 301.469 317.786 302.352C317.823 302.398 317.897 302.352 317.897 302.307C317.8 301.412 317.606 300.538 317.319 299.709C319.421 299.534 321.523 299.378 323.624 299.176L326.925 298.882C327.998 298.772 329.093 298.736 330.158 298.524C330.247 298.524 330.21 298.35 330.136 298.35Z" fill="#263238"/>
<path d="M280.46 287.664C283.205 289.354 295.748 289.996 299.404 295.578C301.839 299.25 301.624 303.041 303.015 314.121C304.251 323.742 297.835 321.465 295.978 316.526C293.077 308.788 290.583 300.305 290.583 300.305C288.442 300.174 286.297 300.213 284.16 300.425L280.46 287.664Z" fill="#F7A9A0"/>
<path d="M289.473 324.054C293.817 320.639 307.707 342.414 300.766 348.152C293.824 353.889 284.552 327.91 289.473 324.054Z" fill="#F7A9A0"/>
<path d="M282.436 328.644C286.772 325.229 300.669 347.004 293.728 352.741C286.787 358.479 277.5 332.545 282.436 328.644Z" fill="#F7A9A0"/>
<path d="M277.448 329.562C281.777 327.203 291.967 349.372 285.011 353.43C278.055 357.488 272.549 332.197 277.448 329.562Z" fill="#F7A9A0"/>
<path d="M272.32 328.919C276.871 328.249 281.296 352.393 273.918 353.705C266.541 355.018 267.192 329.681 272.32 328.919Z" fill="#F7A9A0"/>
<path d="M288.482 331.572C289.278 332.663 290.001 333.832 290.642 335.07C291.382 336.364 292.071 337.677 292.692 339.054C293.298 340.366 293.842 341.721 294.32 343.112C294.809 344.59 295.149 346.169 295.674 347.628C295.681 347.644 295.685 347.662 295.685 347.68C295.686 347.698 295.684 347.716 295.679 347.732C295.673 347.749 295.665 347.764 295.655 347.777C295.645 347.79 295.633 347.8 295.619 347.806C295.606 347.813 295.591 347.816 295.577 347.815C295.562 347.814 295.548 347.809 295.535 347.801C295.522 347.793 295.511 347.781 295.502 347.767C295.493 347.754 295.486 347.737 295.482 347.72C294.976 346.298 294.387 344.923 293.721 343.607C293.107 342.276 292.552 340.908 291.952 339.568C291.353 338.228 290.813 336.943 290.213 335.648C289.614 334.354 288.896 333.069 288.341 331.701C288.332 331.678 288.33 331.651 288.335 331.626C288.34 331.601 288.352 331.579 288.368 331.564C288.385 331.549 288.405 331.541 288.426 331.543C288.447 331.544 288.466 331.555 288.482 331.572Z" fill="#263238"/>
<path d="M281.252 331.453C281.696 333.087 283.191 339.33 283.694 340.945C284.197 342.561 284.752 344.177 285.322 345.774C285.892 347.371 286.38 349.106 287.12 350.676C287.126 350.704 287.125 350.734 287.116 350.761C287.106 350.788 287.09 350.81 287.07 350.824C287.049 350.837 287.025 350.842 287.002 350.837C286.979 350.832 286.958 350.817 286.942 350.795C286.247 349.235 285.462 347.784 284.796 346.205C284.13 344.626 283.605 343.002 283.094 341.349C282.254 338.13 281.575 334.849 281.059 331.527C281.022 331.325 281.2 331.315 281.252 331.453Z" fill="#263238"/>
<path d="M275.798 333.004C276.146 335.336 276.375 337.695 276.73 340.027C276.901 341.175 277.086 342.322 277.256 343.479C277.337 344.03 277.411 344.59 277.493 345.15C277.536 345.797 277.633 346.437 277.781 347.059C277.833 347.215 277.596 347.289 277.581 347.059C277.445 346.361 277.267 345.677 277.049 345.012C276.923 344.47 276.797 343.938 276.686 343.387C276.457 342.249 276.272 341.11 276.124 339.945C275.791 337.659 275.598 335.345 275.546 333.023C275.546 332.876 275.776 332.83 275.798 333.004Z" fill="#263238"/>
<path d="M343.515 178.634C345.348 175.256 346.339 171.285 346.364 167.214C346.364 152.746 333.555 141.023 317.771 141.023C301.987 141.023 289.199 152.746 289.199 167.214C289.199 181.681 301.987 193.404 317.771 193.404C325.43 193.404 332.364 190.65 337.492 186.161L347.341 189.264L343.515 178.634Z" fill="#1679AB"/>
<path d="M307.492 167.214C307.492 167.94 307.319 168.65 306.993 169.254C306.668 169.858 306.206 170.328 305.665 170.606C305.124 170.884 304.529 170.957 303.955 170.815C303.381 170.674 302.853 170.324 302.439 169.81C302.025 169.297 301.743 168.642 301.629 167.93C301.515 167.218 301.573 166.48 301.798 165.809C302.022 165.138 302.401 164.564 302.888 164.161C303.374 163.757 303.947 163.542 304.532 163.542C305.317 163.542 306.07 163.929 306.625 164.617C307.18 165.306 307.492 166.24 307.492 167.214Z" fill="#263238"/>
<path d="M317.778 170.895C319.417 170.895 320.746 169.247 320.746 167.214C320.746 165.181 319.417 163.533 317.778 163.533C316.139 163.533 314.811 165.181 314.811 167.214C314.811 169.247 316.139 170.895 317.778 170.895Z" fill="#263238"/>
<path d="M333.984 167.214C333.984 167.94 333.811 168.65 333.485 169.254C333.16 169.858 332.698 170.328 332.157 170.606C331.616 170.884 331.021 170.957 330.447 170.815C329.873 170.674 329.345 170.324 328.931 169.81C328.517 169.297 328.235 168.642 328.121 167.93C328.007 167.218 328.065 166.48 328.29 165.809C328.514 165.138 328.893 164.564 329.38 164.161C329.866 163.757 330.439 163.542 331.024 163.542C331.809 163.542 332.562 163.929 333.117 164.617C333.672 165.306 333.984 166.24 333.984 167.214Z" fill="#263238"/>
<path d="M240.33 100.062C238.68 117.183 229.807 120.258 228.312 124.848C227.558 127.721 226.935 130.645 226.447 133.606H212.017C211.539 130.643 210.918 127.719 210.16 124.848C208.68 120.258 199.8 117.1 198.246 99.961C197.203 88.7064 204.062 70.9522 219.329 70.9981C234.595 71.044 241.403 88.8165 240.33 100.062Z" fill="#1679AB"/>
<path d="M211.822 106.206L211.094 106.372L215.321 134.856L216.049 134.69L211.822 106.206Z" fill="white"/>
<path d="M226.739 106.238L222.408 134.698L223.135 134.869L227.466 106.408L226.739 106.238Z" fill="white"/>
<path d="M219.277 115.778C218.145 115.778 217.005 114.658 216.073 112.629C216.028 112.538 215.984 112.446 215.947 112.354C215.798 112.591 215.612 112.788 215.399 112.932C215.186 113.075 214.952 113.163 214.711 113.189C212.55 113.189 211.692 107.681 211.662 107.415L212.025 107.333C212.025 107.388 212.854 112.721 214.711 112.73C214.923 112.694 215.126 112.602 215.307 112.461C215.488 112.32 215.643 112.134 215.762 111.913C214.852 109.582 214.341 106.534 215.022 105.148C215.119 104.925 215.264 104.74 215.44 104.612C215.616 104.484 215.817 104.419 216.021 104.423C216.263 104.413 216.502 104.487 216.713 104.636C216.923 104.785 217.096 105.003 217.212 105.267C217.863 106.672 217.382 109.573 216.524 111.399C216.433 111.595 216.334 111.785 216.228 111.969C216.287 112.115 216.354 112.262 216.42 112.4C216.924 113.492 217.967 115.319 219.306 115.319C220.202 115.319 221.097 114.401 221.837 112.868C221.902 112.737 221.961 112.603 222.015 112.464C221.823 112.18 221.654 111.872 221.512 111.546C220.616 109.618 220.439 106.763 221.119 105.313C221.228 105.042 221.394 104.813 221.6 104.651C221.807 104.489 222.045 104.401 222.289 104.395C222.477 104.396 222.663 104.461 222.823 104.584C222.984 104.707 223.114 104.883 223.199 105.093C223.835 106.47 223.48 109.747 222.459 112.327C222.653 112.567 222.884 112.758 223.138 112.887C223.392 113.016 223.664 113.082 223.939 113.079C225.256 113.079 226.433 109.178 226.773 107.672L227.128 107.792C227.076 108.03 225.804 113.538 223.939 113.538C223.341 113.537 222.766 113.258 222.326 112.758L222.192 113.052C221.556 114.319 220.594 115.778 219.277 115.778ZM222.237 104.9C222.058 104.904 221.884 104.97 221.733 105.09C221.583 105.21 221.463 105.379 221.386 105.579C220.779 106.883 220.964 109.582 221.778 111.353C221.884 111.588 222.008 111.809 222.148 112.014C223.051 109.609 223.391 106.589 222.829 105.368C222.776 105.229 222.692 105.111 222.587 105.028C222.482 104.945 222.361 104.901 222.237 104.9ZM215.962 104.9C215.822 104.894 215.684 104.938 215.563 105.026C215.443 105.113 215.345 105.242 215.281 105.396C214.77 106.497 215.103 109.178 215.984 111.51L216.147 111.188C216.931 109.508 217.405 106.763 216.835 105.515C216.751 105.321 216.624 105.16 216.47 105.051C216.315 104.942 216.139 104.89 215.962 104.9Z" fill="white"/>
<path d="M228.131 132.892L210.334 132.838L210.326 137.153L228.123 137.207L228.131 132.892Z" fill="#455A64"/>
<path d="M228.114 137.905L210.317 137.851L210.309 142.165L228.105 142.219L228.114 137.905Z" fill="#455A64"/>
<path d="M228.124 142.877L210.327 142.827L210.319 147.141L228.116 147.191L228.124 142.877Z" fill="#455A64"/>
<path d="M220.017 56.916C220.481 59.2637 220.451 61.7201 219.928 64.0489C219.464 61.7012 219.494 59.2448 220.017 56.916Z" fill="#263238"/>
<path d="M203.877 61.8181C204.562 62.673 205.143 63.6472 205.602 64.7098C206.088 65.7542 206.452 66.8794 206.682 68.0513C206.006 67.2002 205.433 66.2324 204.98 65.178C204.483 64.1302 204.112 62.9984 203.877 61.8181Z" fill="#263238"/>
<path d="M191.882 76.0656C193.756 76.739 195.456 78.0043 196.818 79.7376C195.879 79.4167 194.982 78.9314 194.154 78.2963C193.314 77.692 192.549 76.9407 191.882 76.0656Z" fill="#263238"/>
<path d="M187.22 95.8392C189.112 95.2635 191.093 95.3014 192.97 95.9493C191.077 96.525 189.097 96.4871 187.22 95.8392Z" fill="#263238"/>
<path d="M191.172 115.861C191.861 115.011 192.646 114.291 193.503 113.722C194.343 113.116 195.25 112.667 196.196 112.391C194.786 114.058 193.057 115.252 191.172 115.861Z" fill="#263238"/>
<path d="M246.731 117.385C244.86 116.702 243.162 115.438 241.795 113.713C243.669 114.386 245.369 115.651 246.731 117.385Z" fill="#263238"/>
<path d="M251.385 97.6018C250.443 97.9039 249.472 98.0399 248.499 98.0057C247.53 98.0106 246.565 97.8374 245.636 97.4916C246.574 97.1855 247.544 97.0494 248.514 97.0877C249.486 97.0919 250.452 97.265 251.385 97.6018Z" fill="#263238"/>
<path d="M247.441 77.5894C246.75 78.4333 245.965 79.1504 245.11 79.7191C244.27 80.3265 243.362 80.7781 242.417 81.0594C243.107 80.2195 243.892 79.5083 244.748 78.948C245.589 78.3378 246.496 77.8803 247.441 77.5894Z" fill="#263238"/>
<path d="M235.956 62.6995C235.414 65.0239 234.394 67.1337 232.996 68.8225C233.255 67.6609 233.646 66.5512 234.158 65.5269C234.647 64.4839 235.252 63.532 235.956 62.6995Z" fill="#263238"/>
</svg>
