<svg width="435" height="298" viewBox="0 0 435 298" fill="none" xmlns="http://www.w3.org/2000/svg">
<path d="M197.631 15.7114C197.631 15.7114 74.32 22.5114 27.9722 83.0077C-18.3757 143.504 -8.11929 214.197 91.7466 269.939C191.613 325.682 305.32 286.254 364.881 254.3C424.442 222.347 442.688 127.433 406.991 84.3649C371.294 41.2964 310.131 9.59359 197.631 15.7114Z" fill="#5DEBD7"/>
<path opacity="0.8" d="M197.631 15.7114C197.631 15.7114 74.32 22.5114 27.9722 83.0077C-18.3757 143.504 -8.11929 214.197 91.7466 269.939C191.613 325.682 305.32 286.254 364.881 254.3C424.442 222.347 442.688 127.433 406.991 84.3649C371.294 41.2964 310.131 9.59359 197.631 15.7114Z" fill="white"/>
<path d="M115.216 176.334C115.216 176.334 146.084 179.814 161.73 201.39C161.73 201.39 178.258 176.334 207.93 176.856C215.184 166.968 219.802 154.955 221.247 142.217C222.692 129.478 220.905 116.538 216.094 104.902C211.282 93.267 203.644 83.4151 194.07 76.4939C184.495 69.5727 173.377 65.8669 162.01 65.8081C150.644 65.7492 139.496 69.3397 129.866 76.1614C120.235 82.9832 112.518 92.7556 107.612 104.341C102.707 115.926 100.815 128.847 102.157 141.6C103.498 154.353 108.019 166.413 115.192 176.376L115.216 176.334Z" fill="#5DEBD7"/>
<path opacity="0.4" d="M115.216 176.334C115.216 176.334 146.084 179.814 161.73 201.39C161.73 201.39 178.258 176.334 207.93 176.856C215.184 166.968 219.802 154.955 221.247 142.217C222.692 129.478 220.905 116.538 216.094 104.902C211.282 93.267 203.644 83.4151 194.07 76.4939C184.495 69.5727 173.377 65.8669 162.01 65.8081C150.644 65.7492 139.496 69.3397 129.866 76.1614C120.235 82.9832 112.518 92.7556 107.612 104.341C102.707 115.926 100.815 128.847 102.157 141.6C103.498 154.353 108.019 166.413 115.192 176.376L115.216 176.334Z" fill="white"/>
<path d="M132.569 151.842C147.969 157.354 157.566 173.55 160.067 178.22L159.839 293.45H164.256L163.64 192.377C167.003 186.628 176.619 172.277 191.477 167.147C191.477 167.147 173.835 171.873 163.529 187.763L162.956 163.563C165.494 158.962 175.43 142.683 191.477 137.115C191.477 137.115 172.997 142.056 162.839 158.823L162.26 134.463L162.297 134.79C162.297 134.79 172.72 113.597 191.477 107.124C191.477 107.124 172.165 112.302 162.155 130.015L160.739 97.1921L160.295 144.242C150.488 127.385 132.575 122.429 132.575 122.429C148.376 128.081 158.041 144.938 160.246 149.135L160.098 173.39C150.248 156.749 132.569 151.842 132.569 151.842Z" fill="#263238"/>
<path d="M132.569 151.842C147.969 157.354 157.566 173.55 160.067 178.22L159.839 293.45H164.256L163.64 192.377C167.003 186.628 176.619 172.277 191.477 167.147C191.477 167.147 173.835 171.873 163.529 187.763L162.956 163.563C165.494 158.962 175.43 142.683 191.477 137.115C191.477 137.115 172.997 142.056 162.839 158.823L162.26 134.463L162.297 134.79C162.297 134.79 172.72 113.597 191.477 107.124C191.477 107.124 172.165 112.302 162.155 130.015L160.739 97.1921L160.295 144.242C150.488 127.385 132.575 122.429 132.575 122.429C148.376 128.081 158.041 144.938 160.246 149.135L160.098 173.39C150.248 156.749 132.569 151.842 132.569 151.842Z" fill="#263238"/>
<path d="M238.656 195.69C238.656 195.69 264.424 198.571 277.464 216.612C277.464 216.612 291.263 195.732 316.045 196.135C322.098 187.881 325.952 177.854 327.157 167.221C328.363 156.589 326.87 145.788 322.854 136.076C318.837 126.364 312.461 118.142 304.469 112.365C296.477 106.589 287.197 103.496 277.709 103.448C268.222 103.399 258.918 106.396 250.879 112.091C242.841 117.785 236.4 125.942 232.305 135.612C228.211 145.282 226.632 156.067 227.752 166.712C228.872 177.357 232.645 187.423 238.632 195.739L238.656 195.69Z" fill="#5DEBD7"/>
<path opacity="0.4" d="M238.656 195.69C238.656 195.69 264.424 198.571 277.464 216.612C277.464 216.612 291.263 195.732 316.045 196.135C322.098 187.881 325.952 177.854 327.157 167.221C328.363 156.589 326.87 145.788 322.854 136.076C318.837 126.364 312.461 118.142 304.469 112.365C296.477 106.589 287.197 103.496 277.709 103.448C268.222 103.399 258.918 106.396 250.879 112.091C242.841 117.785 236.4 125.942 232.305 135.612C228.211 145.282 226.632 156.067 227.752 166.712C228.872 177.357 232.645 187.423 238.632 195.739L238.656 195.69Z" fill="white"/>
<path d="M253.145 175.242C266.019 179.849 274.009 193.338 276.097 197.263L275.906 293.45H279.602L279.041 209.081C281.85 204.279 289.877 192.301 302.277 188.02C302.277 188.02 287.548 191.966 278.949 205.225L278.469 185.041C280.588 181.206 288.885 167.6 302.277 162.971C302.277 162.971 286.877 167.098 278.376 181.067L277.902 160.744L277.933 161.015C277.933 161.015 286.631 143.323 302.289 137.922C302.289 137.922 286.169 142.244 277.809 157.027L276.633 129.626L276.263 168.901C268.07 154.835 253.145 150.694 253.145 150.694C266.333 155.413 274.397 169.486 276.239 172.966L276.122 193.212C267.898 179.341 253.145 175.242 253.145 175.242Z" fill="#263238"/>
<path d="M253.145 175.242C266.019 179.849 274.009 193.338 276.097 197.263L275.906 293.45H279.602L279.041 209.081C281.85 204.279 289.877 192.301 302.277 188.02C302.277 188.02 287.548 191.966 278.949 205.225L278.469 185.041C280.588 181.206 288.885 167.6 302.277 162.971C302.277 162.971 286.877 167.098 278.376 181.067L277.902 160.744L277.933 161.015C277.933 161.015 286.631 143.323 302.289 137.922C302.289 137.922 286.169 142.244 277.809 157.027L276.633 129.626L276.263 168.901C268.07 154.835 253.145 150.694 253.145 150.694C266.333 155.413 274.397 169.486 276.239 172.966L276.122 193.212C267.898 179.341 253.145 175.242 253.145 175.242Z" fill="#263238"/>
<path d="M11.642 195.69C11.642 195.69 37.4093 198.571 50.45 216.612C50.45 216.612 64.2484 195.732 89.0301 196.135C95.0835 187.881 98.9373 177.854 100.143 167.221C101.348 156.589 99.8557 145.788 95.8391 136.076C91.8224 126.364 85.4469 118.142 77.4547 112.365C69.4625 106.589 60.1824 103.496 50.695 103.448C41.2076 103.399 31.9031 106.396 23.8648 112.091C15.8266 117.785 9.38527 125.942 5.29081 135.612C1.19636 145.282 -0.382779 156.067 0.737258 166.712C1.8573 177.357 5.63042 187.423 11.6174 195.739L11.642 195.69Z" fill="#5DEBD7"/>
<path opacity="0.4" d="M11.642 195.69C11.642 195.69 37.4093 198.571 50.45 216.612C50.45 216.612 64.2484 195.732 89.0301 196.135C95.0835 187.881 98.9373 177.854 100.143 167.221C101.348 156.589 99.8557 145.788 95.8391 136.076C91.8224 126.364 85.4469 118.142 77.4547 112.365C69.4625 106.589 60.1824 103.496 50.695 103.448C41.2076 103.399 31.9031 106.396 23.8648 112.091C15.8266 117.785 9.38527 125.942 5.29081 135.612C1.19636 145.282 -0.382779 156.067 0.737258 166.712C1.8573 177.357 5.63042 187.423 11.6174 195.739L11.642 195.69Z" fill="white"/>
<path d="M26.1303 175.242C39.0047 179.849 46.9942 193.338 49.0825 197.263L48.8977 293.45H52.5937L52.0331 209.081C54.8421 204.279 62.8685 192.301 75.2686 188.02C75.2686 188.02 60.5401 191.966 51.9407 205.225L51.4602 185.041C53.5793 181.206 61.8768 167.6 75.2686 162.971C75.2686 162.971 59.8686 167.098 51.3678 181.067L50.912 160.744L50.9489 161.015C50.9489 161.015 59.6469 143.323 75.2994 137.922C75.2994 137.922 59.1849 142.244 50.8258 157.027L49.643 129.626L49.2734 168.901C41.056 154.814 26.1303 150.673 26.1303 150.673C39.3189 155.392 47.3885 169.465 49.2242 172.945L49.1071 193.191C40.8835 179.341 26.1303 175.242 26.1303 175.242Z" fill="#263238"/>
<path d="M26.1303 175.242C39.0047 179.849 46.9942 193.338 49.0825 197.263L48.8977 293.45H52.5937L52.0331 209.081C54.8421 204.279 62.8685 192.301 75.2686 188.02C75.2686 188.02 60.5401 191.966 51.9407 205.225L51.4602 185.041C53.5793 181.206 61.8768 167.6 75.2686 162.971C75.2686 162.971 59.8686 167.098 51.3678 181.067L50.912 160.744L50.9489 161.015C50.9489 161.015 59.6469 143.323 75.2994 137.922C75.2994 137.922 59.1849 142.244 50.8258 157.027L49.643 129.626L49.2734 168.901C41.056 154.814 26.1303 150.673 26.1303 150.673C39.3189 155.392 47.3885 169.465 49.2242 172.945L49.1071 193.191C40.8835 179.341 26.1303 175.242 26.1303 175.242Z" fill="#263238"/>
<path d="M327.761 176.501C327.761 176.501 358.561 179.946 374.207 201.557C374.207 201.557 390.71 176.543 420.358 177.058C427.6 167.184 432.211 155.189 433.654 142.469C435.097 129.749 433.312 116.827 428.507 105.209C423.703 93.5905 416.076 83.7531 406.515 76.8421C396.954 69.9311 385.853 66.2307 374.503 66.1719C363.153 66.113 352.022 69.6981 342.405 76.5096C332.788 83.3212 325.082 93.0791 320.183 104.647C315.285 116.215 313.395 129.118 314.734 141.852C316.073 154.586 320.587 166.629 327.749 176.578L327.761 176.501Z" fill="#5DEBD7"/>
<path opacity="0.4" d="M327.761 176.501C327.761 176.501 358.561 179.946 374.207 201.557C374.207 201.557 390.71 176.543 420.358 177.058C427.6 167.184 432.211 155.189 433.654 142.469C435.097 129.749 433.312 116.827 428.507 105.209C423.703 93.5905 416.076 83.7531 406.515 76.8421C396.954 69.9311 385.853 66.2307 374.503 66.1719C363.153 66.113 352.022 69.6981 342.405 76.5096C332.788 83.3212 325.082 93.0791 320.183 104.647C315.285 116.215 313.395 129.118 314.734 141.852C316.073 154.586 320.587 166.629 327.749 176.578L327.761 176.501Z" fill="white"/>
<path d="M345.089 152.044C360.489 157.549 370.049 173.717 372.544 178.388L372.322 293.45H376.776L376.111 192.53C379.468 186.781 389.047 172.451 403.905 167.328C403.905 167.328 386.287 172.054 376 187.916L375.421 163.751C377.959 159.164 387.882 142.871 403.905 137.351C403.905 137.351 385.48 142.286 375.31 159.025L374.731 134.665L374.774 134.985C374.774 134.985 385.154 113.834 403.88 107.368C403.88 107.368 384.599 112.539 374.602 130.224L373.185 97.4497L372.747 144.43C362.947 127.6 345.089 122.652 345.089 122.652C360.865 128.289 370.517 145.126 372.717 149.323L372.575 173.536C362.744 156.944 345.089 152.044 345.089 152.044Z" fill="#263238"/>
<path d="M345.089 152.044C360.489 157.549 370.049 173.717 372.544 178.388L372.322 293.45H376.776L376.111 192.53C379.468 186.781 389.047 172.451 403.905 167.328C403.905 167.328 386.287 172.054 376 187.916L375.421 163.751C377.959 159.164 387.882 142.871 403.905 137.351C403.905 137.351 385.48 142.286 375.31 159.025L374.731 134.665L374.774 134.985C374.774 134.985 385.154 113.834 403.88 107.368C403.88 107.368 384.599 112.539 374.602 130.224L373.185 97.4497L372.747 144.43C362.947 127.6 345.089 122.652 345.089 122.652C360.865 128.289 370.517 145.126 372.717 149.323L372.575 173.536C362.744 156.944 345.089 152.044 345.089 152.044Z" fill="#263238"/>
<path d="M233.963 15.9759C233.827 15.5027 233.685 15.0363 233.538 14.5839C227.994 -2.85782 202.165 -4.0619 202.165 17.3679C202.165 21.4952 193.393 17.3679 190.103 22.7341C186.814 28.1003 190.473 31.3993 186.087 33.0488C181.701 34.6983 181.338 30.578 175.855 30.9608C170.373 31.3436 171.106 37.1552 169.283 38.8047C167.459 40.4543 167.435 39.626 163.437 40.0436C159.439 40.4612 158.712 43.7742 158.712 43.7742H254.808C254.808 43.7742 258.461 31.3854 251.882 26.8475C245.303 22.3095 245.303 28.497 240.178 26.0192C235.934 23.973 235.145 20.0893 233.963 15.9759Z" stroke="#B2B2B2" stroke-linecap="round" stroke-linejoin="round"/>
<path d="M237.283 39.2572C237.283 39.2572 239.273 32.2972 234.388 27.1885C229.503 22.0799 224.439 24.9405 222.992 27.1885C221.544 29.4366 221.544 33.7379 219.191 34.1485C216.838 34.5592 217.38 29.6524 212.31 30.8773C207.241 32.1023 209.23 37.8373 206.883 39.0553C204.536 40.2733 204.53 35.7841 201.278 37.2179C198.025 38.6517 198.198 41.3034 198.198 41.3034" stroke="#B2B2B2" stroke-linecap="round" stroke-linejoin="round"/>
<path d="M211.294 25.365C209.965 24.2983 208.408 23.6514 206.783 23.4912C205.159 23.3309 203.526 23.663 202.054 24.4533C196.812 27.1886 199.232 32.8749 196.812 34.239C194.391 35.6032 193.19 34.0163 190.165 35.631C187.14 37.2458 187.344 39.5008 187.344 39.5008" stroke="#B2B2B2" stroke-linecap="round" stroke-linejoin="round"/>
<path d="M124.216 46.7252C124.154 46.5234 124.099 46.3146 124.031 46.1128C121.592 38.5264 110.356 37.9974 110.356 47.296C110.356 49.0916 106.543 47.296 105.114 49.6345C103.685 51.9731 105.268 53.3999 103.364 54.1237C101.461 54.8476 101.295 53.0449 98.9107 53.2259C96.5268 53.4068 96.8471 55.9194 96.0525 56.6363C95.2579 57.3532 95.2579 56.9982 93.5084 57.1722C93.0571 57.1664 92.6154 57.3194 92.2446 57.61C91.8737 57.9005 91.5921 58.3143 91.4387 58.7939H133.247C133.247 58.7939 134.836 53.3999 131.971 51.4302C129.107 49.4605 129.113 52.1262 126.889 51.0683C125.048 50.2052 124.703 48.514 124.216 46.7252Z" stroke="#B2B2B2" stroke-linecap="round" stroke-linejoin="round"/>
<path d="M125.639 56.8519C125.869 55.93 125.874 54.9547 125.651 54.0303C125.429 53.1059 124.988 52.2672 124.376 51.6041C122.251 49.3838 120.064 50.6297 119.448 51.6041C118.832 52.5785 118.832 54.4507 117.797 54.6317C116.762 54.8126 117.009 52.6759 114.804 53.2049C112.598 53.7338 113.467 56.2325 112.444 56.7684C111.422 57.3043 111.416 55.3764 109.98 55.961C108.545 56.5457 108.631 57.7358 108.631 57.7358" stroke="#B2B2B2" stroke-linecap="round" stroke-linejoin="round"/>
<path d="M114.36 50.8108C113.78 50.344 113.1 50.0611 112.39 49.9913C111.681 49.9216 110.968 50.0676 110.325 50.4141C108.046 51.6043 109.093 54.082 108.046 54.6736C106.999 55.2652 106.469 54.5762 105.157 55.2652C103.845 55.9543 103.925 56.9495 103.925 56.9495" stroke="#B2B2B2" stroke-linecap="round" stroke-linejoin="round"/>
<path d="M338.898 45.8066C338.843 45.6047 338.781 45.4029 338.713 45.1941C336.299 37.6077 325.069 37.0857 325.063 46.4051C325.063 48.2008 321.25 46.4051 319.821 48.7437C318.392 51.0822 319.981 52.516 318.071 53.2329C316.162 53.9498 316.008 52.1541 313.624 52.335C311.24 52.516 311.554 55.0286 310.759 55.7454C309.965 56.4623 309.965 56.1074 308.215 56.2883C307.765 56.2804 307.324 56.4318 306.954 56.7214C306.584 57.011 306.303 57.4242 306.152 57.903H347.953C347.953 57.903 349.543 52.516 346.684 50.5394C343.826 48.5627 343.82 51.2354 341.596 50.1774C339.761 49.2866 339.416 47.6022 338.898 45.8066Z" stroke="#B2B2B2" stroke-linecap="round" stroke-linejoin="round"/>
<path d="M340.346 55.9402C340.578 55.0185 340.584 54.0425 340.361 53.1177C340.138 52.1928 339.697 51.3542 339.083 50.6924C336.958 48.4652 334.771 49.711 334.155 50.6924C333.539 51.6738 333.539 53.539 332.504 53.713C331.469 53.887 331.716 51.7573 329.51 52.321C327.305 52.8848 328.174 55.3417 327.151 55.8776C326.129 56.4135 326.129 54.4508 324.687 55.0772C323.246 55.7036 323.344 56.852 323.344 56.852" stroke="#B2B2B2" stroke-linecap="round" stroke-linejoin="round"/>
<path d="M329.036 49.8921C328.457 49.4266 327.778 49.1444 327.069 49.0747C326.361 49.0049 325.649 49.1502 325.007 49.4954C322.728 50.6855 323.775 53.1633 322.728 53.7549C321.681 54.3465 321.151 53.6574 319.833 54.3534C318.515 55.0494 318.601 56.0378 318.601 56.0378" stroke="#B2B2B2" stroke-linecap="round" stroke-linejoin="round"/>
<path d="M290.099 271.06C290.099 271.06 287.764 284.904 287.635 285.725C287.505 286.546 286.76 293.304 286.76 293.304L297.99 293.137L296.825 282.593L299.739 273.037L290.099 271.06Z" fill="white" stroke="#263238" stroke-linecap="round" stroke-linejoin="round"/>
<path d="M303.952 208.441C303.952 208.441 289.076 262.492 288.491 266.278C287.906 270.065 288.053 271.554 288.053 271.554L301.008 275.18L305.825 261.504L305.967 204.321L303.952 208.441Z" fill="#5DEBD7" stroke="#263238" stroke-linecap="round" stroke-linejoin="round"/>
<path d="M300.472 293.45L303.318 267.837L363.55 268.784L365.158 293.318L300.472 293.45Z" fill="#263238" stroke="#263238" stroke-linecap="round" stroke-linejoin="round"/>
<path d="M302.856 266.438L302.529 273.447C302.529 273.447 309.466 280.094 330.367 279.906C351.267 279.718 358.21 276.767 360.335 276.029C362.46 275.292 363.926 274.366 363.926 272.709C363.767 270.662 363.494 268.628 363.107 266.619C363.107 266.619 344.171 269.403 329.8 269.939C320.718 270.192 311.65 269.014 302.856 266.438Z" fill="#5DEBD7" stroke="#263238" stroke-linecap="round" stroke-linejoin="round"/>
<path d="M324.33 155.719C324.33 155.719 312.385 164.871 311.615 167.843C310.845 170.815 302.647 199.101 303.109 203.123C303.571 207.146 303.885 219.013 303.885 219.013C303.885 219.013 300.189 264.949 301.421 267.566C302.653 270.183 315.952 274.373 335.301 273.677C354.649 272.981 362.811 269.661 363.587 268.805C364.364 267.949 365.288 266.362 364.973 263.571C364.659 260.78 364.665 242.608 364.665 242.608L376.413 237.736C376.413 237.736 371.158 165.254 369.15 161.412C367.142 157.57 350.14 151.807 347.51 151.981C344.879 152.155 324.33 155.719 324.33 155.719Z" fill="#5DEBD7" stroke="#263238" stroke-linecap="round" stroke-linejoin="round"/>
<path d="M316.494 212.478L330.921 222.528" stroke="#263238" stroke-linecap="round" stroke-linejoin="round"/>
<path d="M311.585 209.053L314.93 211.385" stroke="#263238" stroke-linecap="round" stroke-linejoin="round"/>
<path d="M334.98 222.827L336.717 223.982" stroke="#263238" stroke-linecap="round" stroke-linejoin="round"/>
<path d="M325.765 216.702L332.861 221.421" stroke="#263238" stroke-linecap="round" stroke-linejoin="round"/>
<path d="M315.459 98.9322C315.459 98.9322 313.094 110.019 313.094 111.224C313.094 112.428 313.919 115.1 313.802 115.768C313.685 116.437 307.168 123.786 308.006 124.851C308.843 125.916 310.845 129.264 310.845 129.264C310.845 129.264 313.685 143.295 314.745 143.295C315.804 143.295 324.798 140.887 324.798 140.887L324.33 155.719L321.866 158.503C321.866 158.503 320.332 174.406 322.223 174.142C324.114 173.877 348.243 153.826 348.594 152.761C348.945 151.696 348.36 151.021 347.651 150.624C346.943 150.227 345.187 146.88 345.187 146.88C345.187 146.88 344.005 130.308 344.005 129.911C344.005 129.514 346.955 115.212 347.196 114.808C347.436 114.404 348.853 107.326 339.034 102.28C329.215 97.2339 317.745 95.8628 316.802 96.2665C315.86 96.6702 315.459 98.9322 315.459 98.9322Z" fill="white" stroke="#263238" stroke-linecap="round" stroke-linejoin="round"/>
<path d="M324.798 140.887L331.05 139.794L325.038 147.304L324.798 140.887Z" fill="#263238" stroke="#263238" stroke-linecap="round" stroke-linejoin="round"/>
<path d="M313.944 129.661C313.944 129.661 317.609 130.064 320.104 127.127C320.104 127.127 319.987 132.201 318.33 132.869C316.673 133.537 313.944 129.661 313.944 129.661Z" fill="#263238" stroke="#263238" stroke-linecap="round" stroke-linejoin="round"/>
<path d="M317.467 115.365C317.467 116.249 317.178 116.972 316.814 116.972C316.451 116.972 316.198 116.276 316.198 115.365C316.198 114.453 316.488 113.764 316.814 113.764C317.141 113.764 317.467 114.481 317.467 115.365Z" fill="#263238"/>
<path d="M315.219 109.894C315.219 109.894 316.913 108.502 319.833 109.894" stroke="#263238" stroke-linecap="round" stroke-linejoin="round"/>
<path d="M328.98 82.9312C328.98 82.9312 323.122 78.2332 318.773 78.2332C314.424 78.2332 311.024 81.8663 311.024 84.6364C311.024 87.4064 311.967 89.5501 310.833 90.622C309.7 91.6938 307.051 88.4852 305.542 92.9675C304.032 97.4497 310.47 101.939 311.782 102.363C313.094 102.788 315.182 99.5795 316.316 100.658C317.449 101.737 318.016 104.076 320.849 104.076C323.683 104.076 326.332 101.514 327.089 102.795C327.847 104.076 325.956 107.918 327.28 108.989C328.605 110.061 331.247 112.616 331.247 112.616C331.247 112.616 329.923 116.673 330.872 117.105L331.814 117.529C331.814 117.529 333.514 113.047 335.972 113.472C338.43 113.896 339.2 114.968 339.2 119.68C339.2 124.392 334.66 126.083 334.66 126.083C334.66 126.083 339.009 131.853 340.333 132.278C341.658 132.702 343.734 134.199 344.491 132.709C345.249 131.22 349.419 122.025 350.165 120.961C350.91 119.896 356.399 119.68 357.557 114.766C358.715 109.852 355.481 107.507 356.805 106.011C358.13 104.514 363.581 103.874 361.906 97.2548C360.23 90.6359 355.666 90.2044 353.965 89.5988C352.265 88.9933 350.189 84.0308 347.541 82.7641C344.892 81.4974 343.383 82.3396 342.816 82.5553C342.249 82.7711 341.867 79.5625 336.391 80.2028C330.915 80.8432 328.98 82.9312 328.98 82.9312Z" fill="#263238" stroke="#263238" stroke-linecap="round" stroke-linejoin="round"/>
<path d="M315.841 120.745C314.344 120.745 312.527 120.105 311.917 119.29C311.104 118.225 310.562 112.685 311.098 110.938C311.144 110.713 311.244 110.507 311.386 110.342C311.528 110.176 311.708 110.057 311.905 109.999C312.065 109.999 312.478 109.873 318.829 110.298C319.077 110.314 319.32 110.387 319.542 110.514C319.764 110.641 319.96 110.819 320.119 111.036C320.277 111.254 320.393 111.505 320.461 111.776C320.528 112.047 320.545 112.33 320.511 112.609C320.363 113.855 320.159 115.56 320.086 116.124C319.67 117.855 318.722 119.362 317.412 120.376C316.923 120.641 316.384 120.768 315.841 120.745ZM312.269 111.363C311.917 112.316 312.213 117.46 312.885 118.392C313.402 119.088 316.02 119.687 316.845 119.165C317.811 118.357 318.528 117.228 318.897 115.936C318.971 115.372 319.174 113.674 319.322 112.456C319.339 112.277 319.295 112.097 319.199 111.954C319.092 111.821 318.944 111.738 318.786 111.725C314.739 111.426 312.804 111.328 312.269 111.363Z" fill="#263238"/>
<path d="M319.901 112.518L333.668 114.564L332.486 115.768L323.738 114.968L322.198 115.768L319.476 116.033L319.901 112.518Z" fill="#263238" stroke="#263238" stroke-linecap="round" stroke-linejoin="round"/>
<path d="M302.536 226.516C302.536 226.516 297.946 221.219 298.729 220.558C299.195 220.201 299.761 220.049 300.319 220.131C300.877 220.213 301.39 220.524 301.76 221.004C302.634 222.103 307.304 228.507 307.304 228.507L302.536 226.516Z" fill="white" stroke="#263238" stroke-linecap="round" stroke-linejoin="round"/>
<path d="M308.498 231.374C308.498 231.374 303.712 228.722 302.733 228.061C301.753 227.4 296.776 223.885 297.361 223.098C297.946 222.312 299.61 221.992 300.78 223.314C301.95 224.637 306.638 227.073 306.94 227.177C307.242 227.281 309.576 230.928 309.576 230.928L308.498 231.374Z" fill="white" stroke="#263238" stroke-linecap="round" stroke-linejoin="round"/>
<path d="M333.108 231.263C333.108 231.263 326.369 228.172 325.882 227.845C325.395 227.518 324.317 224.971 322.753 223.669C321.188 222.368 319.334 222.013 317.775 221.352C316.039 220.527 314.342 219.598 312.693 218.568C312.207 218.233 310.229 219.89 312.891 222.208C315.552 224.525 317.48 226.182 317.48 226.182C317.48 226.182 313.574 226.398 312.305 226.62C311.036 226.843 308.301 226.509 307.907 225.924C307.513 225.34 304.685 220.962 303.811 220.078C302.936 219.194 300.977 218.86 300.583 220.294C300.189 221.727 301.661 221.623 303.903 225.166C306.145 228.708 309.182 233.441 310.741 233.33C312.299 233.218 323.831 234.659 323.831 234.659L334.087 239.956L333.108 231.263Z" fill="white" stroke="#263238" stroke-linecap="round" stroke-linejoin="round"/>
<path d="M356.282 179.021C356.282 179.021 352.265 194.911 353.343 199.63C354.421 204.348 360.92 228.952 360.92 228.952C360.92 228.952 338.972 229.474 336.342 229.474C334.996 229.441 333.65 229.56 332.325 229.829L332.171 245.197C332.171 245.197 351.181 250.765 363.704 249.373C376.228 247.981 383.952 245.893 384.414 243.436C384.698 241.708 384.801 239.949 384.722 238.195C384.722 238.195 377.152 187.025 375.137 178.645C373.123 170.265 370.967 160.654 369.267 159.255C367.567 157.856 357.982 155.942 357.982 155.942" fill="#5DEBD7"/>
<path d="M356.282 179.021C356.282 179.021 352.265 194.911 353.343 199.63C354.421 204.348 360.92 228.952 360.92 228.952C360.92 228.952 338.972 229.474 336.342 229.474C334.996 229.441 333.65 229.56 332.325 229.829L332.171 245.197C332.171 245.197 351.181 250.765 363.704 249.373C376.228 247.981 383.952 245.893 384.414 243.436C384.698 241.708 384.801 239.949 384.722 238.195C384.722 238.195 377.152 187.025 375.137 178.645C373.123 170.265 370.967 160.654 369.267 159.255C367.567 157.856 357.982 155.942 357.982 155.942" stroke="#263238" stroke-linecap="round" stroke-linejoin="round"/>
<path d="M399.87 19.282H348.391C346.809 19.282 345.293 19.9918 344.174 21.2553C343.056 22.5188 342.428 24.2324 342.428 26.0193V58.4877C342.428 60.2745 343.056 61.9882 344.174 63.2516C345.293 64.5151 346.809 65.2249 348.391 65.2249H367.665L363.008 79.1449L374.478 65.2249H399.87C401.451 65.2249 402.968 64.5151 404.086 63.2516C405.205 61.9882 405.833 60.2745 405.833 58.4877V26.0193C405.833 24.2324 405.205 22.5188 404.086 21.2553C402.968 19.9918 401.451 19.282 399.87 19.282Z" fill="white" stroke="#263238" stroke-linecap="round" stroke-linejoin="round"/>
<path d="M363.169 41.2966C363.171 40.6573 363.005 40.0315 362.693 39.4986C362.38 38.9657 361.935 38.5496 361.413 38.3031C360.891 38.0565 360.316 37.9906 359.76 38.1136C359.205 38.2366 358.695 38.5431 358.294 38.9942C357.893 39.4453 357.619 40.0207 357.508 40.6475C357.397 41.2743 357.453 41.9244 357.669 42.5153C357.884 43.1062 358.251 43.6114 358.721 43.9669C359.191 44.3223 359.745 44.5121 360.31 44.5121C361.066 44.5121 361.791 44.1738 362.327 43.5712C362.863 42.9685 363.165 42.1507 363.169 41.2966Z" fill="#263238"/>
<path d="M376.986 41.2966C376.988 40.6573 376.822 40.0315 376.51 39.4986C376.197 38.9657 375.752 38.5496 375.23 38.3031C374.708 38.0565 374.132 37.9906 373.577 38.1136C373.022 38.2366 372.512 38.5431 372.111 38.9942C371.71 39.4453 371.436 40.0207 371.325 40.6475C371.214 41.2743 371.269 41.9244 371.485 42.5153C371.701 43.1062 372.068 43.6114 372.538 43.9669C373.008 44.3223 373.561 44.5121 374.127 44.5121C374.883 44.5121 375.608 44.1738 376.144 43.5712C376.68 42.9685 376.982 42.1507 376.986 41.2966Z" fill="#263238"/>
<path d="M390.809 41.2966C390.812 40.6553 390.647 40.0273 390.334 39.4922C390.022 38.957 389.575 38.539 389.052 38.291C388.528 38.0431 387.951 37.9764 387.394 38.0995C386.837 38.2225 386.325 38.5298 385.923 38.9823C385.521 39.4348 385.247 40.012 385.135 40.6409C385.024 41.2697 385.081 41.9217 385.298 42.5142C385.515 43.1067 385.883 43.6129 386.355 43.9686C386.828 44.3243 387.383 44.5135 387.95 44.5121C388.706 44.5121 389.431 44.1738 389.967 43.5711C390.503 42.9685 390.805 42.1507 390.809 41.2966Z" fill="#263238"/>
<path d="M258.923 293.45C259.083 290.144 259.286 284.876 259.083 282.906C258.775 279.955 252.412 258.845 252.412 258.845L178.683 258.762L176.712 293.45H258.923Z" fill="#263238" stroke="#263238" stroke-linecap="round" stroke-linejoin="round"/>
<path d="M257.697 261.024L255.424 263.453L250.964 267.629L259.114 282.941C259.114 282.941 262.342 279.12 262.81 277.561C263.278 276.002 264.344 271.297 264.344 271.297L265.268 268.868L257.697 261.024Z" fill="white" stroke="#263238" stroke-linecap="round" stroke-linejoin="round"/>
<path d="M200.132 148.453C200.132 148.453 174.094 157.501 173.114 161.948C172.135 166.396 157.252 211.942 157.252 211.942L180.943 214.816C180.943 214.816 175.658 259.729 176.631 261.059C177.605 262.388 209.526 263.71 215.396 263.933C221.267 264.156 251.623 260.39 252.406 258.845C253.188 257.3 252.991 253.758 252.991 253.758L252.011 221.011L252.208 207.522L262.976 231.409C262.976 231.409 266.112 234.29 271.785 233.4C277.458 232.509 281.579 229.641 280.409 220.795C279.239 211.949 263.777 171.462 262.003 165.484C260.229 159.505 258.504 156.638 255.738 155.086C252.972 153.534 226.367 146.038 226.367 146.038L200.132 148.453Z" fill="#5DEBD7" stroke="#263238" stroke-linecap="round" stroke-linejoin="round"/>
<path d="M252.215 207.522L252.997 178.095" stroke="#263238" stroke-linecap="round" stroke-linejoin="round"/>
<path d="M252.997 195.795L255.541 179.425" stroke="#263238" stroke-linecap="round" stroke-linejoin="round"/>
<path d="M180.943 214.816L183.882 174.998" stroke="#263238" stroke-linecap="round" stroke-linejoin="round"/>
<path d="M182.12 191.368L179.964 175.444" stroke="#263238" stroke-linecap="round" stroke-linejoin="round"/>
<path d="M200.329 141.813C200.329 141.813 194.452 147.123 194.649 148.23C194.847 149.337 194.847 154.202 196.996 155.308C199.146 156.415 212.858 168.581 212.858 168.581L200.329 141.813Z" fill="#5DEBD7" stroke="#263238" stroke-linecap="round" stroke-linejoin="round"/>
<path d="M197.779 123.55L200.717 150.889L212.858 168.581L227.347 144.221L227.544 127.183C227.544 127.183 226.17 132.278 217.756 131.832C209.341 131.387 197.779 123.55 197.779 123.55Z" fill="white" stroke="#263238" stroke-linecap="round" stroke-linejoin="round"/>
<path d="M212.821 138.124L200.329 141.813L197.311 120.815L212.821 138.124Z" fill="#263238" stroke="#263238" stroke-linecap="round" stroke-linejoin="round"/>
<path d="M212.858 168.581C212.858 168.581 217.17 152.879 217.558 150.666C217.947 148.453 227.938 139.6 227.938 139.6C228.196 139.594 228.453 139.647 228.693 139.757C228.932 139.866 229.15 140.029 229.332 140.236C229.515 140.442 229.658 140.689 229.754 140.96C229.85 141.231 229.897 141.521 229.891 141.813C229.891 144.026 230.088 146.685 230.088 146.685L212.858 168.581Z" fill="#5DEBD7" stroke="#263238" stroke-linecap="round" stroke-linejoin="round"/>
<path d="M230.285 107.417C230.285 107.417 233.026 104.981 234.394 108.739C235.761 112.497 231.462 118.483 230.482 119.583L229.503 120.689C229.503 120.689 228.887 114.495 228.887 112.282C228.887 110.068 228.523 106.971 230.285 107.417Z" fill="white" stroke="#263238" stroke-linecap="round" stroke-linejoin="round"/>
<path d="M193.288 110.716C193.288 110.716 190.35 111.154 190.344 114.036C190.337 116.917 191.908 120.891 193.867 122.22C195.054 123.021 196.398 123.478 197.779 123.55C197.779 123.55 198.364 128.86 201.099 132.403C203.834 135.946 207.364 138.604 209.107 139.934C210.85 141.263 214.78 143.254 217.115 142.154C219.45 141.054 222.992 137.073 222.992 137.073C224.123 136.425 225.124 135.521 225.933 134.417C226.741 133.313 227.34 132.033 227.692 130.656C229.065 125.784 230.642 117.39 230.642 113.186C230.642 108.983 229.669 103.895 229.478 102.565C229.287 101.236 226.152 96.1483 216.949 96.1414C207.746 96.1344 200.317 99.4404 198.931 101.876C197.545 104.312 193.288 110.716 193.288 110.716Z" fill="white" stroke="#263238" stroke-linecap="round" stroke-linejoin="round"/>
<path d="M195.672 109.24L196.805 114.683C196.805 114.683 197.939 114.843 197.939 113.882C197.939 112.922 196.793 107.41 196.793 107.41L195.672 109.24Z" fill="#263238" stroke="#263238" stroke-linecap="round" stroke-linejoin="round"/>
<path d="M212.304 120.467C212.304 120.467 212.107 122.241 214.257 122.903C216.407 123.564 219.542 122.903 219.936 121.58C220.143 120.623 220.076 119.617 219.745 118.706" stroke="#263238" stroke-linecap="round" stroke-linejoin="round"/>
<path d="M209.723 126.216C211.638 127.168 213.732 127.566 215.817 127.376C217.903 127.185 219.913 126.411 221.667 125.123" stroke="#263238" stroke-linecap="round" stroke-linejoin="round"/>
<path d="M209.433 114.495C210.138 114.495 210.709 113.554 210.709 112.393C210.709 111.232 210.138 110.291 209.433 110.291C208.729 110.291 208.158 111.232 208.158 112.393C208.158 113.554 208.729 114.495 209.433 114.495Z" fill="#263238"/>
<path d="M223.922 112.393C223.922 113.555 223.349 114.481 222.647 114.481C221.944 114.481 221.378 113.541 221.378 112.393C221.378 111.245 221.944 110.305 222.647 110.305C223.349 110.305 223.922 111.231 223.922 112.393Z" fill="#263238"/>
<path d="M205.029 109.185C206.011 108.218 207.185 107.532 208.451 107.185C209.718 106.839 211.039 106.842 212.304 107.194" stroke="#263238" stroke-width="2" stroke-linecap="round" stroke-linejoin="round"/>
<path d="M219.696 106.748C220.866 106.394 222.094 106.35 223.282 106.619C224.47 106.888 225.587 107.464 226.546 108.301" stroke="#263238" stroke-width="2" stroke-linecap="round" stroke-linejoin="round"/>
<path d="M196.805 107.417C196.805 107.417 194.847 110.73 193.282 110.73C191.717 110.73 186.426 106.087 186.032 102.106C185.637 98.125 193.67 95.0278 196.608 90.1558C199.547 85.2838 207.376 77.1058 213.641 78.4351C219.905 79.7645 224.02 87.4831 227.938 88.8334C231.856 90.1836 238.114 94.5823 237.56 99.0089C237.006 103.435 235.404 105.426 233.864 105.642C232.324 105.858 230.34 104.535 230.34 104.535C230.34 104.535 224.858 97.2411 217.029 96.1344C209.199 95.0278 206.452 97.2411 203.711 100.554C201.554 103.021 199.246 105.314 196.805 107.417Z" fill="#263238" stroke="#263238" stroke-linecap="round" stroke-linejoin="round"/>
<path d="M196.805 107.416C197.792 107.857 198.858 108.023 199.914 107.902C200.97 107.781 201.984 107.376 202.873 106.72C206.199 104.507 208.158 98.7582 216.382 100.31C224.605 101.862 225.585 104.953 227.544 105.398C229.503 105.844 230.285 105.614 229.503 102.517C228.72 99.4194 221.864 93.8932 215.014 93.4686C208.164 93.0441 197.193 100.777 196.805 107.416Z" fill="#595959" stroke="#263238" stroke-linecap="round" stroke-linejoin="round"/>
<path d="M194.914 195.815C194.914 195.815 197.292 187.825 197.994 186.872C198.697 185.918 203.286 183.949 203.286 183.949L206.292 182.445C206.39 182.396 206.497 182.372 206.604 182.374C206.712 182.377 206.817 182.406 206.914 182.46C207.01 182.513 207.095 182.591 207.162 182.686C207.229 182.78 207.277 182.891 207.302 183.009C207.629 184.526 207.518 184.812 206.748 185.633C205.836 186.6 202.239 188.487 202.239 188.487L208.891 186.851L219.949 184.276C220.065 184.248 220.185 184.248 220.301 184.276C220.417 184.305 220.526 184.362 220.622 184.442C220.717 184.523 220.796 184.625 220.853 184.743C220.91 184.861 220.944 184.991 220.953 185.125C220.99 185.647 211.633 189.718 211.633 189.718L211.787 190.756L219.216 189.99L222.351 189.44C222.639 189.39 222.933 189.464 223.174 189.649C223.415 189.833 223.586 190.114 223.651 190.435C223.713 190.73 223.683 191.04 223.565 191.312C223.447 191.583 223.248 191.8 223.004 191.925C221.883 192.496 220.059 193.428 219.85 193.505C219.641 193.581 212.458 195.133 212.458 195.133L216.487 196.428L223.318 196.351C223.509 196.351 223.693 196.436 223.83 196.587C223.967 196.737 224.046 196.943 224.051 197.159C224.055 197.307 224.022 197.454 223.957 197.583C223.892 197.712 223.797 197.818 223.682 197.89C222.797 198.479 221.877 198.998 220.928 199.442C219.949 199.79 216.616 200.444 215.766 200.604C214.916 200.764 212.07 200.945 211.854 200.966C211.639 200.987 216.782 201.822 217.016 201.885C217.25 201.947 220.096 202.128 220.066 202.483C220.035 202.838 220.127 203.346 219.604 203.569C218.061 203.898 216.489 204.012 214.922 203.91C212.834 203.84 210.056 203.826 210.056 203.826C210.056 203.826 204.413 204.78 202.115 204.989C199.818 205.198 196.707 205.921 196.707 205.921L192.45 207.877L190.602 197.437L194.914 195.815Z" fill="white" stroke="#263238" stroke-linecap="round" stroke-linejoin="round"/>
<path d="M193.436 196.24L195.746 208.072C195.746 208.072 166.72 232.71 166.227 232.71C165.734 232.71 162.691 233.232 158.835 229.411C154.979 225.59 154.074 220.203 154.683 216.73C155.293 213.257 158.379 208.914 159.913 207.348C161.447 205.782 193.436 196.24 193.436 196.24Z" fill="#5DEBD7" stroke="#263238" stroke-linecap="round" stroke-linejoin="round"/>
<path d="M270.916 222.117C270.916 222.117 265.372 227.323 264.14 229.773C262.908 232.223 256.607 261.734 256.607 261.734L266.296 271.283L271.366 263.467C271.366 263.467 283.206 233.42 283.686 231.332C284.167 229.244 281.838 221.435 279.374 217.614" fill="#5DEBD7"/>
<path d="M270.916 222.117C270.916 222.117 265.372 227.323 264.14 229.773C262.908 232.223 256.607 261.734 256.607 261.734L266.296 271.283L271.366 263.467C271.366 263.467 283.206 233.42 283.686 231.332C284.167 229.244 281.838 221.435 279.374 217.614" stroke="#263238" stroke-linecap="round" stroke-linejoin="round"/>
<path d="M282.337 38.1714H230.864C229.283 38.1714 227.766 38.8812 226.648 40.1447C225.529 41.4082 224.901 43.1218 224.901 44.9087V77.3771C224.901 79.1639 225.529 80.8776 226.648 82.141C227.766 83.4045 229.283 84.1143 230.864 84.1143H250.139L245.482 98.0343L256.952 84.1143H282.337C283.919 84.1143 285.435 83.4045 286.553 82.141C287.672 80.8776 288.3 79.1639 288.3 77.3771V44.9087C288.3 43.1218 287.672 41.4082 286.553 40.1447C285.435 38.8812 283.919 38.1714 282.337 38.1714Z" fill="white" stroke="#263238" stroke-linecap="round" stroke-linejoin="round"/>
<path d="M246.036 61.216C246.037 60.5753 245.87 59.9486 245.556 59.4153C245.242 58.8821 244.794 58.4662 244.271 58.2203C243.747 57.9745 243.171 57.9099 242.614 58.0345C242.058 58.1592 241.547 58.4675 241.146 58.9206C240.745 59.3736 240.472 59.9509 240.362 60.5794C240.252 61.2078 240.309 61.8591 240.527 62.4508C240.744 63.0424 241.112 63.5478 241.584 63.9029C242.056 64.258 242.611 64.4468 243.178 64.4455C243.936 64.4455 244.663 64.1052 245.199 63.4996C245.735 62.8939 246.036 62.0725 246.036 61.216Z" fill="#263238"/>
<path d="M259.853 61.216C259.853 60.5773 259.685 59.9529 259.371 59.4218C259.057 58.8908 258.611 58.4768 258.089 58.2324C257.566 57.988 256.992 57.924 256.437 58.0486C255.883 58.1732 255.373 58.4808 254.974 58.9325C254.574 59.3841 254.302 59.9595 254.192 60.586C254.081 61.2124 254.138 61.8618 254.354 62.4519C254.571 63.042 254.937 63.5463 255.407 63.9012C255.877 64.256 256.43 64.4455 256.995 64.4455C257.753 64.4455 258.48 64.1052 259.016 63.4996C259.552 62.8939 259.853 62.0725 259.853 61.216Z" fill="#263238"/>
<path d="M273.67 61.216C273.67 60.5773 273.502 59.9529 273.188 59.4218C272.874 58.8908 272.428 58.4768 271.906 58.2324C271.383 57.988 270.809 57.924 270.254 58.0486C269.7 58.1732 269.19 58.4808 268.791 58.9325C268.391 59.3841 268.119 59.9595 268.008 60.586C267.898 61.2124 267.955 61.8618 268.171 62.4519C268.387 63.042 268.754 63.5463 269.224 63.9012C269.694 64.256 270.246 64.4455 270.812 64.4455C271.57 64.4455 272.297 64.1052 272.833 63.4996C273.369 62.8939 273.67 62.0725 273.67 61.216Z" fill="#263238"/>
<path d="M85.8146 79.4095C85.8146 79.4095 69.3058 92.0837 69.0963 96.3919C68.8869 100.7 68.4803 112.65 66.3428 114.808C64.2053 116.966 60.1828 120.543 60.1828 123.16C60.1828 125.777 61.0267 129.139 61.0267 130.336C61.0267 131.533 58.4888 133.684 58.2732 136.314C58.0576 138.945 59.5483 143.97 59.5483 145.404C59.5483 146.838 56.1603 149.232 55.7353 151.139C55.3103 153.046 56.3513 154.25 55.3102 156.164C54.2692 158.078 52.1378 161.19 52.1378 161.19C52.1378 161.19 55.9447 166.444 69.2811 168.846C82.6175 171.247 101.88 171.957 109.937 170.043C117.994 168.129 133.456 156.415 133.456 156.415C133.456 156.415 131.971 155.461 131.971 152.831C131.971 150.2 134.934 146.135 133.456 143.024C131.978 139.913 128.583 139.676 128.583 135.131C128.583 130.586 130.068 131.303 128.583 127.956C127.099 124.608 123.926 124.134 123.508 121.504C123.089 118.873 125.836 115.525 124.124 111.453C122.411 107.382 118.832 104.493 118.198 102.607C117.563 100.721 119.467 95.4314 117.348 92.3273C115.229 89.2231 100.629 79.6462 95.7568 78.456C90.8843 77.2658 85.8146 79.4095 85.8146 79.4095Z" fill="#263238" stroke="#263238" stroke-linecap="round" stroke-linejoin="round"/>
<path d="M113.171 127.44C111.594 138.841 103.401 146.664 103.401 146.664V152.719L97.2968 151.912L81.9708 149.873V134.561C80.9151 134.531 79.863 134.412 78.823 134.206C76.9319 133.851 74.7204 129.939 76.6116 122.457C78.5027 114.975 81.9708 123.849 81.9708 123.849C81.9708 123.849 83.2028 124.204 87.6441 114.592C92.0855 104.981 94.26 91.8401 94.26 91.8401L110.966 102.169C110.966 102.169 114.742 116.047 113.171 127.44Z" fill="white" stroke="#263238" stroke-linecap="round" stroke-linejoin="round"/>
<path d="M105.668 112.595C105.668 112.595 104.646 115.894 104.646 116.889C104.646 117.884 106.98 128.77 107.276 129.417C107.572 130.064 101.578 131.067 101.578 131.067" stroke="#263238" stroke-linecap="round" stroke-linejoin="round"/>
<path d="M107.128 133.725C107.128 133.725 101.141 136.363 97.6356 132.403" stroke="#263238" stroke-linecap="round" stroke-linejoin="round"/>
<path d="M99.3851 109.936C99.3851 109.936 94.2723 108.941 91.6419 112.574" stroke="#263238" stroke-linecap="round" stroke-linejoin="round"/>
<path d="M106.968 110.284C106.968 110.284 110.621 109.129 112.081 111.774" stroke="#263238" stroke-linecap="round" stroke-linejoin="round"/>
<path d="M97.3461 117.627C97.3461 119.019 96.7671 120.153 96.0525 120.153C95.338 120.153 94.7651 119.019 94.7651 117.627C94.7651 116.235 95.3441 115.1 96.0525 115.1C96.7609 115.1 97.3461 116.235 97.3461 117.627Z" fill="#263238"/>
<path d="M110.837 117.627C110.837 119.019 110.257 120.153 109.549 120.153C108.841 120.153 108.255 119.019 108.255 117.627C108.255 116.235 108.835 115.1 109.549 115.1C110.264 115.1 110.837 116.235 110.837 117.627Z" fill="#263238"/>
<path d="M103.401 146.664V152.719L97.2968 151.912C92.7631 147.583 88.5619 139.801 88.2539 139.217C93.416 147.924 103.401 146.664 103.401 146.664Z" fill="#263238" stroke="#263238" stroke-linecap="round" stroke-linejoin="round"/>
<path d="M121.093 165.908C121.093 165.908 138.624 237.492 139.899 244.668C141.174 251.844 144.341 283.769 144.341 283.769L145.296 293.095H134.824L137.047 279.461L124.666 232.829C124.666 232.829 120.218 198.391 119.898 188.702C119.578 179.014 121.093 165.908 121.093 165.908Z" fill="white" stroke="#263238" stroke-linecap="round" stroke-linejoin="round"/>
<path d="M121.093 165.908C121.093 165.908 119.578 179.014 119.861 188.702C120.144 198.391 124.629 232.829 124.629 232.829L129.532 251.224L140.559 249.254C140.312 247.327 140.084 245.74 139.899 244.696C138.624 237.492 121.093 165.908 121.093 165.908Z" fill="#5DEBD7" stroke="#263238" stroke-linecap="round" stroke-linejoin="round"/>
<path d="M81.4779 164.67L96.7178 183.322L108.465 164.308L102.114 159.29L84.9707 158.211L81.4779 164.67Z" fill="white" stroke="#263238" stroke-linecap="round" stroke-linejoin="round"/>
<path d="M101.159 162.519L111.323 165.741L126.243 266.188L128.787 293.45H61.1561L68.776 170.05L82.8516 160.723L101.159 162.519Z" fill="#C9C9C9" stroke="#263238" stroke-linecap="round" stroke-linejoin="round"/>
<path d="M87.1944 207.717L111.003 208.789" stroke="#263238" stroke-linecap="round" stroke-linejoin="round"/>
<path d="M99.576 208.072L98.6212 222.785" stroke="#263238" stroke-linecap="round" stroke-linejoin="round"/>
<path d="M102.114 209.151L101.8 236.058" stroke="#263238" stroke-linecap="round" stroke-linejoin="round"/>
<path d="M104.652 216.682L105.292 230.316" stroke="#263238" stroke-linecap="round" stroke-linejoin="round"/>
<path d="M77.1351 159.763C77.1351 159.763 61.6859 169.089 61.0514 172.2C60.4169 175.311 52.9017 214.531 52.9017 215.248C52.9017 215.965 60.4169 238.216 60.4169 238.216L58.8584 273.19C58.8584 273.19 66.4783 275.104 71.1353 274.867C75.7923 274.631 82.7777 274.171 82.7777 274.171L83.9111 159.791L77.1351 159.763Z" fill="#5DEBD7" stroke="#263238" stroke-linecap="round" stroke-linejoin="round"/>
<path d="M67.5071 226.725L70.3653 198.391" stroke="#263238" stroke-linecap="round" stroke-linejoin="round"/>
<path d="M67.6118 222.424L51.3124 176.752C51.3124 176.752 48.9839 169.576 47.0805 167.662C45.1771 165.748 43.058 164.315 41.7891 162.881C40.5201 161.447 40.3107 158.099 39.4606 161.684C38.6105 165.268 42.0047 167.906 42.0047 167.906L44.136 171.964L30.584 169.096C30.584 169.096 23.5986 165.275 22.9641 166.945C22.3296 168.616 25.9271 170.057 28.89 172.687C31.853 175.318 33.547 177.706 38.4134 179.647C41.579 180.979 44.5158 182.922 47.0928 185.389C47.0928 185.389 48.1523 233.935 50.6903 236.093C53.2282 238.251 61.9138 243.979 65.0862 239.197C68.2586 234.416 68.2463 230.08 67.6118 222.424Z" fill="white" stroke="#263238" stroke-linecap="round" stroke-linejoin="round"/>
<path d="M67.6118 222.423L64.9815 215.032L48.5712 221.296C49.1133 229.119 49.8032 235.313 50.678 236.058C53.222 238.209 61.9015 243.944 65.0739 239.162C68.2463 234.381 68.2463 230.08 67.6118 222.423Z" fill="#5DEBD7" stroke="#263238" stroke-linecap="round" stroke-linejoin="round"/>
<path d="M36.128 177.448C36.128 177.448 30.5347 173.613 29.5183 171.699C28.5019 169.785 24.9415 162.317 26.1303 162.129C27.3192 161.941 30.4423 167.405 30.5347 168.254C30.6271 169.103 34.0952 172.847 34.0952 172.847" fill="white"/>
<path d="M36.128 177.448C36.128 177.448 30.5347 173.613 29.5183 171.699C28.5019 169.785 24.9415 162.317 26.1303 162.129C27.3192 161.941 30.4423 167.405 30.5347 168.254C30.6271 169.103 34.0952 172.847 34.0952 172.847" stroke="#263238" stroke-linecap="round" stroke-linejoin="round"/>
<path d="M36.6085 178.965C35.033 177.707 33.7998 175.976 33.048 173.968C31.6928 170.523 30.1651 165.734 30.1651 163.055C30.1651 160.375 31.5203 161.336 32.0131 163.25C32.5059 165.164 34.2307 169.792 34.896 170.732C35.5613 171.671 37.976 175.52 37.976 175.52" fill="white"/>
<path d="M36.6085 178.965C35.033 177.707 33.7998 175.976 33.048 173.968C31.6928 170.523 30.1651 165.734 30.1651 163.055C30.1651 160.375 31.5203 161.336 32.0131 163.25C32.5059 165.164 34.2307 169.792 34.896 170.732C35.5613 171.671 37.976 175.52 37.976 175.52" stroke="#263238" stroke-linecap="round" stroke-linejoin="round"/>
<path d="M49.68 180.879C49.5075 180.302 47.3084 176.286 46.6308 176.091C45.9532 175.896 41.3763 177.239 41.3763 177.239L38.2963 174.56C38.2963 174.56 38.1238 168.818 38.1238 166.709C38.1238 164.6 35.5798 169.771 35.4134 173.216C35.2471 176.662 37.6187 180.302 37.6187 180.302C37.6187 180.302 40.3291 180.879 40.8342 181.067C41.3394 181.255 47.0743 185.355 47.0743 185.355" fill="white"/>
<path d="M49.68 180.879C49.5075 180.302 47.3084 176.286 46.6308 176.091C45.9532 175.896 41.3763 177.239 41.3763 177.239L38.2963 174.56C38.2963 174.56 38.1238 168.818 38.1238 166.709C38.1238 164.6 35.5798 169.771 35.4134 173.216C35.2471 176.662 37.6187 180.302 37.6187 180.302C37.6187 180.302 40.3291 180.879 40.8342 181.067C41.3394 181.255 47.0743 185.355 47.0743 185.355" stroke="#263238" stroke-linecap="round" stroke-linejoin="round"/>
<path d="M77.9852 159.763L75.8662 229.836L84.9707 229.599L82.8516 160.723L77.9852 159.763Z" fill="#858585" stroke="#263238" stroke-linecap="round" stroke-linejoin="round"/>
<path d="M77.9852 159.763L82.2172 235.341L95.3441 235.098L86.6647 160.487L77.9852 159.763Z" fill="#858585" stroke="#263238" stroke-linecap="round" stroke-linejoin="round"/>
<path d="M105.607 163.236L105.687 164.586L112.272 272.285L129.76 270.998L124.992 220.99C124.992 220.99 122.06 166.625 121.111 165.909C120.163 165.192 105.607 161.44 105.607 161.44V163.236Z" fill="#5DEBD7" stroke="#263238" stroke-linecap="round" stroke-linejoin="round"/>
<path d="M80.1043 145.891C80.1043 145.891 101.664 150.68 103.598 150.68C105.533 150.68 106.771 152.114 106.346 153.784C105.99 155.104 105.783 156.47 105.73 157.849C105.73 158.809 108.058 162.637 106.155 164.551C104.251 166.465 84.3547 162.874 81.6011 162.637C78.8476 162.4 76.3097 162.157 76.3097 160.48C76.3097 158.802 79.4821 155.942 79.4821 154.744C79.4821 153.547 76.9257 149.963 80.1043 145.891Z" fill="#858585" stroke="#263238" stroke-linecap="round" stroke-linejoin="round"/>
<path d="M23.5985 20.333H80.9358C82.6927 20.333 84.378 21.1197 85.6227 22.5207C86.8673 23.9217 87.5698 25.823 87.5763 27.808V64C87.5763 65.9899 86.8767 67.8983 85.6314 69.3054C84.386 70.7125 82.697 71.5029 80.9358 71.5029H59.4682L64.6549 87.0307L51.8791 71.5029H23.5985C21.8374 71.5029 20.1484 70.7125 18.903 69.3054C17.6577 67.8983 16.9581 65.9899 16.9581 64V27.808C16.9646 25.823 17.6671 23.9217 18.9117 22.5207C20.1563 21.1197 21.8416 20.333 23.5985 20.333Z" fill="white" stroke="#263238" stroke-linecap="round" stroke-linejoin="round"/>
<path d="M41.4071 46.1197C41.401 45.4825 41.2282 44.8616 40.9105 44.3351C40.5928 43.8086 40.1443 43.4001 39.6215 43.161C39.0987 42.9219 38.525 42.8629 37.9726 42.9914C37.4202 43.1199 36.9138 43.4302 36.5172 43.8832C36.1205 44.3362 35.8513 44.9117 35.7435 45.5371C35.6357 46.1626 35.6941 46.8102 35.9113 47.3982C36.1285 47.9863 36.4948 48.4887 36.9642 48.842C37.4335 49.1953 37.9849 49.3839 38.5489 49.3839C38.9268 49.384 39.301 49.2993 39.6498 49.1348C39.9986 48.9704 40.3151 48.7294 40.5809 48.4258C40.8467 48.1222 41.0566 47.7621 41.1984 47.3662C41.3403 46.9704 41.4112 46.5467 41.4071 46.1197Z" fill="#263238"/>
<path d="M55.224 46.1198C55.224 45.4811 55.0564 44.8567 54.7423 44.3256C54.4282 43.7946 53.9818 43.3806 53.4595 43.1362C52.9373 42.8918 52.3626 42.8278 51.8081 42.9524C51.2537 43.077 50.7444 43.3846 50.3447 43.8363C49.9449 44.2879 49.6727 44.8633 49.5624 45.4898C49.4521 46.1162 49.5087 46.7656 49.7251 47.3557C49.9414 47.9458 50.3078 48.4502 50.7778 48.805C51.2478 49.1599 51.8004 49.3493 52.3657 49.3493C53.1238 49.3493 53.8508 49.009 54.3868 48.4034C54.9229 47.7977 55.224 46.9763 55.224 46.1198Z" fill="#263238"/>
<path d="M69.0409 46.1198C69.0409 45.4811 68.8733 44.8567 68.5592 44.3256C68.2451 43.7946 67.7987 43.3806 67.2764 43.1362C66.7542 42.8918 66.1795 42.8278 65.625 42.9524C65.0706 43.077 64.5613 43.3846 64.1616 43.8363C63.7618 44.2879 63.4896 44.8633 63.3793 45.4898C63.269 46.1162 63.3256 46.7656 63.542 47.3557C63.7583 47.9458 64.1247 48.4502 64.5947 48.805C65.0647 49.1599 65.6173 49.3493 66.1826 49.3493C66.9407 49.3493 67.6677 49.009 68.2037 48.4034C68.7397 47.7977 69.0409 46.9763 69.0409 46.1198Z" fill="#263238"/>
<path d="M6.57233 293.45H423.869" stroke="#263238" stroke-linecap="round" stroke-linejoin="round"/>
</svg>
